<?xml version="1.0" encoding="utf-8"?>
<!-- Generator: Adobe Illustrator 23.0.0, SVG Export Plug-In . SVG Version: 6.00 Build 0)  -->
<svg version="1.1" id="Layer_1" xmlns="http://www.w3.org/2000/svg" xmlns:xlink="http://www.w3.org/1999/xlink" x="0px" y="0px"
	 viewBox="0 0 581.1 113.39" style="enable-background:new 0 0 581.1 113.39;" xml:space="preserve">
<style type="text/css">
	.st0{clip-path:url(#SVGID_2_);}
	.st1{fill-rule:evenodd;clip-rule:evenodd;fill:#2AACE2;}
	.st2{fill-rule:evenodd;clip-rule:evenodd;fill:#FFFFFF;}
	.st3{fill-rule:evenodd;clip-rule:evenodd;fill:#00AEEF;}
</style>
<g>
	<defs>
		<rect id="SVGID_1_" width="581.1" height="113.39"/>
	</defs>
	<clipPath id="SVGID_2_">
		<use xlink:href="#SVGID_1_"  style="overflow:visible;"/>
	</clipPath>
	<g class="st0">
		<g>
			<path class="st1" d="M105.64,61.4c3.08-25.04-15.41-51.11-43.14-54.76C33.74,3.51,12.17,24.89,9.09,50.45
				c-3.6,28.69,17.97,51.63,42.63,54.76C79.45,108.34,101.53,89.05,105.64,61.4L105.64,61.4z"/>
			<path class="st2" d="M102.23,60.94c3.08-27.12-16.95-48.51-39.54-51.11C35.98,6.7,14.41,27.04,12.36,50.51
				c-2.57,27.64,16.43,49.03,40.06,51.63C79.12,104.76,99.66,83.89,102.23,60.94L102.23,60.94z"/>
			<path class="st3" d="M82.04,20.63c-7.7-5.74-21.06-9.39-31.33-7.3c-8.22,1.56-12.84,3.65-18.49,7.82
				c-12.34,10.03-18.09,22.9-16.95,39.12c1.54,21.91,23.11,43.29,49.3,38.07c15.92-2.61,26.71-13.04,31.84-26.08
				c4.62-10.95,4.11-25.56-1.54-36.51C92.26,29.55,86.86,25.05,82.04,20.63L82.04,20.63z"/>
			<g>
				<path class="st2" d="M20.87,75.76c4.62,1.57,9.76,6.26,20.03,5.22c6.68-0.52,12.33-6.26,15.41-9.39
					c0.51,5.74-8.22,14.08-15.41,15.65C31.66,88.28,22.41,81.5,20.87,75.76L20.87,75.76z"/>
				<path class="st2" d="M30.63,34.04c-9.57-3.24-13.42,9.06-12.84,16.69c1.03,14.6,14.89,23.47,27.73,17.73
					c8.22-3.65,11.81-8.87,11.81-20.34c-0.51-10.95,0-22.43-0.51-33.38h-6.68c-0.51,7.82,0,16.69,0,23.99
					c0,7.3,1.54,16.69-2.57,20.86c-8.73,8.87-28.25,4.17-27.22-11.47c3.08,2.09,5.65,5.22,10.78,3.13
					C39.87,48.12,39.36,36.12,30.63,34.04L30.63,34.04z"/>
				<path class="st2" d="M16.76,60.63c0,9.39,9.76,17.73,18.49,18.25c10.27,1.04,20.03-6.78,21.06-15.65
					c-2.57,1.04-2.57,3.65-8.73,6.78c-3.6,2.09-7.19,2.61-12.33,2.61C21.9,72.11,19.84,62.72,16.76,60.63L16.76,60.63z"/>
				<path class="st2" d="M64.01,97.14c0.51-7.82,0-16.17,0-23.99c0-7.82-1.03-16.17,3.59-20.34c8.22-8.87,28.25-3.65,26.71,12
					c-6.16-6.78-12.33-4.69-15.41,0c-8.22,12,13.87,23.47,17.97,2.61c1.03-7.82-1.54-14.6-5.14-18.78
					c-8.73-9.91-25.68-7.82-31.84,3.13c-3.08,5.74-2.05,14.6-2.05,21.91c0,7.82-0.51,15.65,0,23.47H64.01L64.01,97.14z"/>
				<path class="st2" d="M58.87,48.64c0.51-8.87,10.79-16.17,21.06-15.13c9.24,1.04,17.98,8.87,17.98,18.25
					c-3.59-1.56-5.65-11.47-17.98-12C66.06,38.73,62.98,45.51,58.87,48.64z"/>
				<path class="st2" d="M79.93,25.69c5.95,0.76,12.26,5.74,14.38,11.47c-2.57-1.04-4.62-3.13-8.73-4.17
					c-3.08-1.56-7.19-2.09-11.3-1.56c-9.24,0.52-11.81,7.3-15.92,9.39C60.47,31.16,70,23.17,79.93,25.69L79.93,25.69z"/>
			</g>
		</g>
		<g>
			<g>
				<path d="M136.32,23.44V49.6l-0.03,2.91c0,2.84-0.31,5.21-0.93,7.09c-0.62,1.88-1.72,3.75-3.28,5.6c-2.98,3.53-5.51,5.3-7.6,5.3
					c-0.46,0-0.88-0.06-1.24-0.19l-1.77-0.58l-1.55-0.42c-0.42-0.24-0.63-0.69-0.63-1.36c0-0.39,0.05-0.84,0.16-1.36l0.76-4.1
					c0.11-0.63,0.32-0.94,0.64-0.94c0.58,0,1.3,0.49,2.18,1.46l1.22,1.4c0.94,1.06,1.75,1.6,2.42,1.6c1.63,0,2.44-2.06,2.44-6.17
					l-0.06-2.39V33.11c0-5-0.06-8.32-0.17-9.97c-0.12-1.65-0.38-2.88-0.78-3.7c-0.38-0.75-0.93-1.28-1.66-1.58
					c-0.73-0.3-2.03-0.54-3.91-0.71c-0.63-0.07-0.95-0.38-0.95-0.95c0-0.74,0.49-1.12,1.46-1.12c0.49,0,1.2,0.04,2.15,0.13
					c2.98,0.28,4.66,0.42,5.04,0.42c0.74,0,1.85-0.1,3.33-0.29c3.04-0.37,4.82-0.55,5.32-0.55c0.95,0,1.43,0.3,1.43,0.89
					c0,0.37-0.32,0.66-0.95,0.86c-1.16,0.37-1.95,1.04-2.38,2.02C136.53,19.53,136.32,21.16,136.32,23.44z"/>
				<path d="M166.23,18.79l14.42,33.74c0.72,1.7,1.56,2.97,2.54,3.81c0.97,0.84,2.23,1.4,3.77,1.68c0.38,0.07,0.57,0.37,0.57,0.92
					c0,0.59-0.24,0.88-0.73,0.86c-0.28-0.02-0.68-0.09-1.21-0.19c-1.63-0.37-4.25-0.55-7.87-0.55c-3.64,0-6.12,0.17-7.43,0.51
					c-0.32,0.09-0.59,0.14-0.83,0.14c-0.59,0-0.89-0.31-0.89-0.92c0-0.31,0.23-0.54,0.7-0.69c1.01-0.3,1.85-0.84,2.52-1.61
					c0.67-0.78,1-1.59,1-2.46c0-1.21-0.92-3.86-2.75-7.95c-0.57-1.25-1.2-1.97-1.88-2.15c-0.68-0.18-3.11-0.27-7.28-0.27h-4.3
					l-2.84,0.52c-0.78,0.37-1.66,1.78-2.65,4.26l-0.98,2.48c-0.3,0.71-0.44,1.43-0.44,2.16c0,2.71,1.86,4.28,5.58,4.71
					c0.8,0.11,1.19,0.43,1.17,0.95c-0.04,0.57-0.42,0.86-1.14,0.86c-0.38,0-0.92-0.06-1.62-0.19c-1.4-0.28-2.65-0.42-3.75-0.42
					c-0.99,0-2.6,0.11-4.83,0.32c-1.65,0.17-2.68,0.26-3.08,0.26c-0.59,0-0.89-0.26-0.89-0.79c0-0.44,0.3-0.77,0.89-0.99
					c1.14-0.37,2.05-1.04,2.74-2.02c0.69-0.98,1.71-3.04,3.06-6.18l8.65-20.33c0.7-1.61,1.18-2.72,1.46-3.32l2.95-6.16l1.52-3.03
					v0.1c0.68-1.64,1.13-2.46,1.36-2.46c0.34,0,0.92,0.9,1.74,2.71L166.23,18.79z M167.42,39l-4.14-9.86
					c-0.99-2.36-1.7-3.55-2.12-3.55c-0.25,0-0.72,0.76-1.39,2.29l-0.6,1.35l-3.7,8.6l-0.35,0.81c-0.15,0.32-0.22,0.6-0.22,0.84
					c0,0.73,0.76,1.1,2.28,1.1h9.35c0.8,0,1.2-0.23,1.2-0.68c0-0.11-0.05-0.29-0.16-0.55L167.42,39z"/>
				<path d="M201.05,14.37c1.98,0,3.93,0.39,5.83,1.16l2.12,0.9c0.95,0.39,1.63,0.58,2.03,0.58c0.3,0,0.6-0.08,0.92-0.23l1.21-0.61
					c0.17-0.09,0.34-0.13,0.51-0.13c0.44,0,0.67,0.36,0.67,1.07l-0.06,2.62c0,0.41,0.02,0.8,0.06,1.16l0.41,3.17l0.32,2.94
					c0.04,0.26,0.06,0.47,0.06,0.65c0,0.93-0.26,1.39-0.79,1.39c-0.38,0-0.65-0.41-0.82-1.23c-0.61-3.01-2.16-5.61-4.63-7.8
					c-2.48-2.19-5.1-3.29-7.87-3.29c-1.9,0-3.57,0.65-4.98,1.96c-1.42,1.31-2.13,2.85-2.13,4.63c0,1.65,0.62,3.08,1.87,4.28
					c0.8,0.78,3.31,2.03,7.52,3.78c5.01,2.09,8.33,4.14,9.96,6.14c1.92,2.41,2.89,5.32,2.89,8.73c0,3.75-1.33,7.02-3.99,9.8
					c-2.66,2.78-5.78,4.17-9.35,4.17c-1.46,0-3.77-0.51-6.94-1.52c-1.48-0.5-2.57-0.82-3.26-0.97c-0.97-0.19-1.54-0.38-1.7-0.56
					c-0.16-0.18-0.29-0.74-0.4-1.66c-0.11-1.01-0.42-2.48-0.95-4.39c-0.8-2.93-1.2-4.8-1.2-5.62c0-1.03,0.33-1.55,0.98-1.55
					c0.3,0,0.51,0.26,0.63,0.77c1.04,3.7,2.84,6.8,5.4,9.32c2.56,2.51,5.21,3.77,7.96,3.77c2.14,0,4.05-0.83,5.73-2.5
					c1.68-1.66,2.52-3.57,2.52-5.72c0-1.7-0.44-3.09-1.32-4.19c-0.88-1.1-2.39-2.13-4.55-3.09l-4.82-2.2
					c-4.55-2.07-7.64-4.03-9.27-5.87c-1.63-1.84-2.44-4.29-2.44-7.36c0-3.56,1.13-6.53,3.41-8.92S197.67,14.37,201.05,14.37z"/>
				<path d="M241.61,18.79l14.42,33.74c0.72,1.7,1.56,2.97,2.54,3.81c0.97,0.84,2.23,1.4,3.77,1.68c0.38,0.07,0.57,0.37,0.57,0.92
					c0,0.59-0.24,0.88-0.73,0.86c-0.28-0.02-0.68-0.09-1.21-0.19c-1.63-0.37-4.25-0.55-7.87-0.55c-3.64,0-6.12,0.17-7.43,0.51
					c-0.32,0.09-0.59,0.14-0.83,0.14c-0.59,0-0.89-0.31-0.89-0.92c0-0.31,0.23-0.54,0.7-0.69c1.01-0.3,1.85-0.84,2.52-1.61
					c0.67-0.78,1-1.59,1-2.46c0-1.21-0.92-3.86-2.75-7.95c-0.57-1.25-1.2-1.97-1.88-2.15c-0.68-0.18-3.11-0.27-7.28-0.27h-4.3
					l-2.84,0.52c-0.78,0.37-1.66,1.78-2.65,4.26l-0.98,2.48c-0.3,0.71-0.44,1.43-0.44,2.16c0,2.71,1.86,4.28,5.58,4.71
					c0.8,0.11,1.19,0.43,1.17,0.95c-0.04,0.57-0.42,0.86-1.14,0.86c-0.38,0-0.92-0.06-1.62-0.19c-1.4-0.28-2.65-0.42-3.75-0.42
					c-1,0-2.6,0.11-4.83,0.32c-1.65,0.17-2.68,0.26-3.08,0.26c-0.59,0-0.89-0.26-0.89-0.79c0-0.44,0.3-0.77,0.89-0.99
					c1.14-0.37,2.05-1.04,2.74-2.02c0.69-0.98,1.71-3.04,3.06-6.18l8.65-20.33c0.7-1.61,1.18-2.72,1.46-3.32l2.95-6.16l1.52-3.03
					v0.1c0.68-1.64,1.13-2.46,1.36-2.46c0.34,0,0.92,0.9,1.74,2.71L241.61,18.79z M242.79,39l-4.14-9.86
					c-0.99-2.36-1.7-3.55-2.12-3.55c-0.25,0-0.72,0.76-1.39,2.29l-0.6,1.35l-3.7,8.6l-0.35,0.81c-0.15,0.32-0.22,0.6-0.22,0.84
					c0,0.73,0.76,1.1,2.28,1.1h9.35c0.8,0,1.2-0.23,1.2-0.68c0-0.11-0.05-0.29-0.16-0.55L242.79,39z"/>
				<path d="M293.25,46.76c0,4.09,0.37,6.86,1.11,8.31c0.74,1.45,2.2,2.28,4.37,2.5c0.89,0.09,1.33,0.44,1.33,1.05
					c0,0.61-0.36,0.92-1.08,0.92c-0.23,0-0.67-0.03-1.3-0.1c-1.82-0.15-3.57-0.23-5.26-0.23c-1.42,0-2.67,0.04-3.77,0.12L286,59.59
					l-2.12,0.19c-0.59,0.06-1,0.09-1.23,0.09c-0.76,0-1.14-0.3-1.14-0.89c0-0.48,0.21-0.79,0.63-0.92c1.44-0.45,2.43-1.06,2.98-1.82
					c0.55-0.76,0.82-1.93,0.82-3.5v-3.06l0.03-1.26V25.08c0-2.58-0.32-4.31-0.95-5.19c-1.04-1.44-2.73-2.31-5.07-2.61
					c-0.87-0.13-1.3-0.5-1.3-1.12c0-0.61,0.3-0.92,0.89-0.92c0.23,0,0.61,0.03,1.14,0.1c1.63,0.17,3.41,0.26,5.35,0.26
					c2.13,0,4.72-0.12,7.76-0.36c3.57-0.28,6.03-0.42,7.38-0.42c4.01,0,7.34,1.12,9.98,3.35c2.64,2.23,3.96,5.04,3.96,8.42
					c0,2.13-0.59,4.08-1.76,5.82c-1.17,1.75-2.78,3.07-4.83,3.98c-0.42,0.17-0.62,0.39-0.6,0.65c0.02,0.21,0.13,0.47,0.32,0.78
					c0.19,0.3,0.48,0.81,0.86,1.52l2.82,5.1l3.26,5.91c1.12,2,2.12,3.39,2.99,4.16c0.88,0.78,1.91,1.16,3.09,1.16
					c0.49,0,0.94-0.04,1.36-0.13c0.25-0.06,0.49-0.1,0.7-0.1c0.38,0,0.57,0.25,0.57,0.74c0,0.62-0.86,1.34-2.59,2.13
					c-1.73,0.8-3.26,1.2-4.6,1.2c-2.17,0-4.17-1.09-6.01-3.26c-1.83-2.18-4.22-6.29-7.15-12.34c-1.14-2.39-2.08-3.9-2.82-4.54
					c-0.74-0.63-1.94-0.95-3.61-0.95h-1.96l-1.43,0.26c-0.32,0.17-0.48,0.69-0.48,1.55V46.76z M293.25,21.54v11.18
					c0,1.38,0.17,2.25,0.52,2.62c0.35,0.37,1.18,0.55,2.49,0.55c3.77,0,6.1-0.07,7-0.21s1.74-0.58,2.52-1.31
					c1.54-1.42,2.32-3.38,2.32-5.88c0-3.25-1.04-5.94-3.13-8.06s-4.74-3.18-7.95-3.18c-1.44,0-2.43,0.31-2.97,0.92
					C293.52,18.78,293.25,19.9,293.25,21.54z"/>
				<path d="M347.31,18.79l14.42,33.74c0.72,1.7,1.56,2.97,2.54,3.81c0.97,0.84,2.23,1.4,3.77,1.68c0.38,0.07,0.57,0.37,0.57,0.92
					c0,0.59-0.24,0.88-0.73,0.86c-0.28-0.02-0.68-0.09-1.21-0.19c-1.63-0.37-4.25-0.55-7.87-0.55c-3.64,0-6.12,0.17-7.43,0.51
					c-0.32,0.09-0.59,0.14-0.83,0.14c-0.59,0-0.89-0.31-0.89-0.92c0-0.31,0.23-0.54,0.7-0.69c1.01-0.3,1.85-0.84,2.52-1.61
					c0.67-0.78,1-1.59,1-2.46c0-1.21-0.92-3.86-2.75-7.95c-0.57-1.25-1.2-1.97-1.88-2.15c-0.68-0.18-3.11-0.27-7.28-0.27h-4.3
					l-2.84,0.52c-0.78,0.37-1.66,1.78-2.65,4.26l-0.98,2.48c-0.3,0.71-0.44,1.43-0.44,2.16c0,2.71,1.86,4.28,5.58,4.71
					c0.8,0.11,1.19,0.43,1.17,0.95c-0.04,0.57-0.42,0.86-1.14,0.86c-0.38,0-0.92-0.06-1.62-0.19c-1.4-0.28-2.65-0.42-3.75-0.42
					c-1,0-2.6,0.11-4.83,0.32c-1.65,0.17-2.68,0.26-3.08,0.26c-0.59,0-0.89-0.26-0.89-0.79c0-0.44,0.3-0.77,0.89-0.99
					c1.14-0.37,2.05-1.04,2.74-2.02c0.69-0.98,1.71-3.04,3.06-6.18l8.65-20.33c0.7-1.61,1.18-2.72,1.46-3.32l2.95-6.16l1.52-3.03
					v0.1c0.68-1.64,1.13-2.46,1.36-2.46c0.34,0,0.92,0.9,1.74,2.71L347.31,18.79z M348.5,39l-4.14-9.86
					c-0.99-2.36-1.7-3.55-2.12-3.55c-0.25,0-0.72,0.76-1.39,2.29l-0.6,1.35l-3.7,8.6l-0.35,0.81c-0.15,0.32-0.22,0.6-0.22,0.84
					c0,0.73,0.76,1.1,2.28,1.1h9.35c0.8,0,1.2-0.23,1.2-0.68c0-0.11-0.05-0.29-0.16-0.55L348.5,39z"/>
				<path d="M401.05,37.34h-15.02c-1.5,0-2.42,0.2-2.77,0.6c-0.35,0.4-0.52,1.45-0.52,3.15v8.03c0,3.06,0.49,5.25,1.46,6.6
					c0.97,1.34,2.57,2.02,4.78,2.02c0.72,0,1.08,0.29,1.08,0.86c0,0.68-0.55,1.02-1.65,1.02c-0.38,0-1.13-0.06-2.25-0.19
					c-2.49-0.3-4.79-0.45-6.88-0.45c-1.31,0-3.05,0.12-5.23,0.35c-1.29,0.15-2.1,0.23-2.44,0.23c-0.68,0-1.01-0.36-1.01-1.08
					c0-0.46,0.26-0.72,0.79-0.79c1.44-0.24,2.47-0.9,3.09-2c0.62-1.1,0.93-2.77,0.93-5.01l0.03-1.74V21.99
					c0-1.57-0.42-2.73-1.25-3.47c-0.83-0.74-2.38-1.34-4.64-1.79c-0.59-0.13-0.89-0.45-0.89-0.95c0-0.63,0.34-0.95,1.01-0.95
					c0.38,0,1.08,0.08,2.09,0.24c1.71,0.27,3.72,0.41,6.02,0.41c0.78,0,2.45-0.14,5.01-0.42c1.52-0.15,2.67-0.23,3.45-0.23
					c0.76,0,1.14,0.3,1.14,0.89c0,0.48-0.31,0.78-0.92,0.89c-2.49,0.43-3.74,2.03-3.74,4.81v8.29c0,2.19,0.15,3.48,0.46,3.85
					c0.31,0.38,1.33,0.56,3.06,0.56h14.8c1.29,0,2.07-0.26,2.36-0.79c0.29-0.53,0.43-1.99,0.43-4.38v-6.95
					c0-2.76-1.49-4.42-4.47-4.98l-1.46-0.29c-0.59-0.11-0.89-0.43-0.89-0.95c0-0.63,0.34-0.95,1.01-0.95c0.38,0,1.08,0.08,2.09,0.24
					c1.73,0.27,3.75,0.41,6.05,0.41c0.8,0,2.47-0.14,5.01-0.42c1.52-0.15,2.67-0.23,3.45-0.23c0.76,0,1.14,0.3,1.14,0.89
					c0,0.48-0.31,0.78-0.92,0.89c-2.49,0.43-3.74,2.03-3.74,4.81v27.71c0,3.06,0.48,5.25,1.44,6.6c0.96,1.34,2.53,2.02,4.71,2.02
					c0.78,0,1.17,0.29,1.17,0.86c0,0.68-0.55,1.02-1.65,1.02c-0.38,0-1.12-0.06-2.22-0.19c-2.51-0.3-4.8-0.45-6.87-0.45
					c-1.33,0-3.08,0.12-5.26,0.35c-1.29,0.15-2.1,0.23-2.44,0.23c-0.68,0-1.01-0.36-1.01-1.08c0-0.46,0.26-0.72,0.79-0.79
					c1.44-0.24,2.47-0.9,3.09-2c0.62-1.1,0.93-2.76,0.93-5l0.03-1.74v-7.1c0-2.11-0.14-3.38-0.41-3.82
					C403.15,37.56,402.36,37.34,401.05,37.34z"/>
				<path d="M443.22,18.79l14.42,33.74c0.72,1.7,1.56,2.97,2.54,3.81c0.97,0.84,2.23,1.4,3.77,1.68c0.38,0.07,0.57,0.37,0.57,0.92
					c0,0.59-0.24,0.88-0.73,0.86c-0.28-0.02-0.68-0.09-1.21-0.19c-1.63-0.37-4.25-0.55-7.87-0.55c-3.64,0-6.12,0.17-7.43,0.51
					c-0.32,0.09-0.59,0.14-0.83,0.14c-0.59,0-0.89-0.31-0.89-0.92c0-0.31,0.23-0.54,0.7-0.69c1.01-0.3,1.85-0.84,2.52-1.61
					c0.67-0.78,1-1.59,1-2.46c0-1.21-0.92-3.86-2.75-7.95c-0.57-1.25-1.2-1.97-1.88-2.15c-0.68-0.18-3.11-0.27-7.28-0.27h-4.3
					l-2.84,0.52c-0.78,0.37-1.66,1.78-2.65,4.26l-0.98,2.48c-0.3,0.71-0.44,1.43-0.44,2.16c0,2.71,1.86,4.28,5.58,4.71
					c0.8,0.11,1.19,0.43,1.17,0.95c-0.04,0.57-0.42,0.86-1.14,0.86c-0.38,0-0.92-0.06-1.62-0.19c-1.4-0.28-2.65-0.42-3.75-0.42
					c-1,0-2.6,0.11-4.83,0.32c-1.65,0.17-2.68,0.26-3.08,0.26c-0.59,0-0.89-0.26-0.89-0.79c0-0.44,0.3-0.77,0.89-0.99
					c1.14-0.37,2.05-1.04,2.74-2.02c0.69-0.98,1.71-3.04,3.06-6.18l8.65-20.33c0.7-1.61,1.18-2.72,1.46-3.32l2.95-6.16l1.52-3.03
					v0.1c0.68-1.64,1.13-2.46,1.36-2.46c0.34,0,0.92,0.9,1.74,2.71L443.22,18.79z M444.41,39l-4.14-9.86
					c-0.99-2.36-1.7-3.55-2.12-3.55c-0.25,0-0.72,0.76-1.39,2.29l-0.6,1.35l-3.7,8.6l-0.35,0.81c-0.15,0.32-0.22,0.6-0.22,0.84
					c0,0.73,0.76,1.1,2.28,1.1h9.35c0.8,0,1.2-0.23,1.2-0.68c0-0.11-0.05-0.29-0.16-0.55L444.41,39z"/>
				<path d="M478.64,46.76c0,4.09,0.37,6.86,1.11,8.31c0.74,1.45,2.2,2.28,4.37,2.5c0.89,0.09,1.33,0.44,1.33,1.05
					c0,0.61-0.36,0.92-1.08,0.92c-0.23,0-0.67-0.03-1.3-0.1c-1.82-0.15-3.57-0.23-5.26-0.23c-1.42,0-2.67,0.04-3.77,0.12l-2.66,0.25
					l-2.12,0.19c-0.59,0.06-1,0.09-1.23,0.09c-0.76,0-1.14-0.3-1.14-0.89c0-0.48,0.21-0.79,0.63-0.92c1.44-0.45,2.43-1.06,2.98-1.82
					s0.82-1.93,0.82-3.5v-3.06l0.03-1.26V25.08c0-2.58-0.32-4.31-0.95-5.19c-1.04-1.44-2.73-2.31-5.07-2.61
					c-0.87-0.13-1.3-0.5-1.3-1.12c0-0.61,0.3-0.92,0.89-0.92c0.23,0,0.61,0.03,1.14,0.1c1.63,0.17,3.41,0.26,5.35,0.26
					c2.13,0,4.72-0.12,7.76-0.36c3.57-0.28,6.03-0.42,7.38-0.42c4.01,0,7.34,1.12,9.98,3.35c2.64,2.23,3.96,5.04,3.96,8.42
					c0,2.13-0.59,4.08-1.76,5.82c-1.17,1.75-2.78,3.07-4.83,3.98c-0.42,0.17-0.62,0.39-0.6,0.65c0.02,0.21,0.13,0.47,0.32,0.78
					c0.19,0.3,0.48,0.81,0.86,1.52l2.82,5.1l3.26,5.91c1.12,2,2.12,3.39,2.99,4.16c0.88,0.78,1.91,1.16,3.09,1.16
					c0.49,0,0.94-0.04,1.36-0.13c0.25-0.06,0.49-0.1,0.7-0.1c0.38,0,0.57,0.25,0.57,0.74c0,0.62-0.86,1.34-2.59,2.13
					c-1.73,0.8-3.26,1.2-4.6,1.2c-2.17,0-4.17-1.09-6.01-3.26c-1.83-2.18-4.22-6.29-7.15-12.34c-1.14-2.39-2.08-3.9-2.82-4.54
					c-0.74-0.63-1.94-0.95-3.61-0.95h-1.96l-1.43,0.26c-0.32,0.17-0.48,0.69-0.48,1.55V46.76z M478.64,21.54v11.18
					c0,1.38,0.17,2.25,0.52,2.62c0.35,0.37,1.18,0.55,2.49,0.55c3.77,0,6.1-0.07,7-0.21s1.74-0.58,2.52-1.31
					c1.54-1.42,2.32-3.38,2.32-5.88c0-3.25-1.04-5.94-3.13-8.06c-2.09-2.12-4.74-3.18-7.95-3.18c-1.44,0-2.43,0.31-2.97,0.92
					C478.91,18.78,478.64,19.9,478.64,21.54z"/>
				<path d="M523.51,23.44V49.6l-0.03,2.91c0,2.84-0.31,5.21-0.94,7.09c-0.62,1.88-1.72,3.75-3.28,5.6c-2.98,3.53-5.51,5.3-7.6,5.3
					c-0.46,0-0.88-0.06-1.24-0.19l-1.77-0.58l-1.55-0.42c-0.42-0.24-0.63-0.69-0.63-1.36c0-0.39,0.05-0.84,0.16-1.36l0.76-4.1
					c0.11-0.63,0.32-0.94,0.64-0.94c0.58,0,1.3,0.49,2.18,1.46l1.23,1.4c0.94,1.06,1.75,1.6,2.42,1.6c1.63,0,2.44-2.06,2.44-6.17
					l-0.06-2.39V33.11c0-5-0.06-8.32-0.17-9.97c-0.12-1.65-0.38-2.88-0.78-3.7c-0.38-0.75-0.94-1.28-1.66-1.58
					c-0.73-0.3-2.03-0.54-3.91-0.71c-0.63-0.07-0.95-0.38-0.95-0.95c0-0.74,0.49-1.12,1.46-1.12c0.49,0,1.2,0.04,2.16,0.13
					c2.98,0.28,4.66,0.42,5.04,0.42c0.74,0,1.85-0.1,3.33-0.29c3.04-0.37,4.82-0.55,5.32-0.55c0.95,0,1.43,0.3,1.43,0.89
					c0,0.37-0.32,0.66-0.95,0.86c-1.16,0.37-1.95,1.04-2.38,2.02C523.72,19.53,523.51,21.16,523.51,23.44z"/>
				<path d="M553.42,18.79l14.42,33.74c0.72,1.7,1.56,2.97,2.54,3.81c0.97,0.84,2.23,1.4,3.77,1.68c0.38,0.07,0.57,0.37,0.57,0.92
					c0,0.59-0.24,0.88-0.73,0.86c-0.28-0.02-0.68-0.09-1.21-0.19c-1.63-0.37-4.25-0.55-7.87-0.55c-3.64,0-6.12,0.17-7.43,0.51
					c-0.32,0.09-0.59,0.14-0.83,0.14c-0.59,0-0.89-0.31-0.89-0.92c0-0.31,0.23-0.54,0.7-0.69c1.01-0.3,1.85-0.84,2.52-1.61
					c0.67-0.78,1-1.59,1-2.46c0-1.21-0.92-3.86-2.75-7.95c-0.57-1.25-1.2-1.97-1.88-2.15c-0.68-0.18-3.11-0.27-7.28-0.27h-4.3
					l-2.84,0.52c-0.78,0.37-1.66,1.78-2.65,4.26l-0.98,2.48c-0.3,0.71-0.44,1.43-0.44,2.16c0,2.71,1.86,4.28,5.58,4.71
					c0.8,0.11,1.19,0.43,1.17,0.95c-0.04,0.57-0.42,0.86-1.14,0.86c-0.38,0-0.92-0.06-1.62-0.19c-1.4-0.28-2.65-0.42-3.75-0.42
					c-1,0-2.6,0.11-4.83,0.32c-1.65,0.17-2.68,0.26-3.08,0.26c-0.59,0-0.89-0.26-0.89-0.79c0-0.44,0.3-0.77,0.89-0.99
					c1.14-0.37,2.05-1.04,2.74-2.02c0.69-0.98,1.71-3.04,3.06-6.18l8.65-20.33c0.7-1.61,1.18-2.72,1.46-3.32l2.95-6.16l1.52-3.03
					v0.1c0.68-1.64,1.13-2.46,1.36-2.46c0.34,0,0.92,0.9,1.74,2.71L553.42,18.79z M554.61,39l-4.14-9.86
					c-0.99-2.36-1.7-3.55-2.12-3.55c-0.25,0-0.72,0.76-1.39,2.29l-0.6,1.35l-3.7,8.6l-0.35,0.81c-0.15,0.32-0.22,0.6-0.22,0.84
					c0,0.73,0.76,1.1,2.28,1.1h9.35c0.8,0,1.2-0.23,1.2-0.68c0-0.11-0.05-0.29-0.16-0.55L554.61,39z"/>
			</g>
			<g>
				<path d="M132.42,77.9l-1.38,10.03c-0.29,2.11-1,3.71-2.13,4.8c-1.13,1.09-2.64,1.63-4.51,1.63c-1.66,0-2.98-0.46-3.98-1.37
					c-0.99-0.92-1.49-2.14-1.49-3.67c0-0.32,0.02-0.64,0.07-0.97l1.45-10.46h2.1l-1.47,10.63c-0.03,0.23-0.05,0.44-0.05,0.65
					c0,1,0.32,1.79,0.97,2.36c0.65,0.58,1.48,0.86,2.51,0.86c0.89,0,1.68-0.21,2.36-0.65c0.68-0.43,1.15-0.97,1.41-1.61
					c0.26-0.64,0.48-1.61,0.65-2.91l1.29-9.34H132.42z"/>
				<path d="M138.96,83.45l-0.22,1.58h-2.09l-1.02,5.85c-0.05,0.29-0.08,0.54-0.08,0.74c0,0.7,0.37,1.05,1.11,1.05
					c0.55,0,1.19-0.21,1.92-0.64l-0.11,1.98c-0.73,0.32-1.46,0.48-2.18,0.48c-0.86,0-1.54-0.22-2.04-0.67
					c-0.5-0.44-0.75-1.03-0.75-1.76c0-0.18,0.02-0.36,0.05-0.55l1.1-6.48h-1.85l0.24-1.58h1.92l0.38-2.19h1.96l-0.38,2.19H138.96z"
					/>
				<path d="M149.27,83.45l-1.48,10.7h-1.98l0.19-1.23l-0.05-0.06c-0.92,1-1.86,1.5-2.83,1.5c-0.96,0-1.77-0.41-2.45-1.24
					c-0.67-0.83-1.01-1.83-1.01-3c0-2.03,0.63-3.71,1.88-5.03c1.25-1.32,3-1.98,5.24-1.98C147.71,83.12,148.53,83.23,149.27,83.45z
					 M146.24,91.06l0.86-6.18c-0.21-0.02-0.42-0.02-0.62-0.02c-1.56,0-2.75,0.51-3.56,1.52c-0.81,1.01-1.22,2.14-1.22,3.39
					c0,0.86,0.2,1.56,0.59,2.11c0.39,0.55,0.89,0.82,1.49,0.82c0.48,0,1.01-0.24,1.58-0.73C145.93,91.49,146.23,91.18,146.24,91.06z
					"/>
				<path d="M153.81,83.45l-0.26,1.85c1.22-1.34,2.44-2.01,3.65-2.01c1.35,0,2.14,0.8,2.38,2.41c1.28-1.61,2.58-2.41,3.92-2.41
					c0.75,0,1.34,0.26,1.8,0.78s0.68,1.25,0.68,2.19c0,0.3-0.02,0.62-0.07,0.97l-0.96,6.94h-1.98l0.98-7.03
					c0.04-0.24,0.06-0.46,0.06-0.67c0-1.05-0.38-1.57-1.13-1.57c-0.19,0-0.4,0.04-0.63,0.12c-0.23,0.08-0.48,0.22-0.76,0.4
					c-0.28,0.19-0.66,0.52-1.15,1.01c-0.48,0.49-0.74,0.8-0.76,0.94l-0.96,6.79h-1.98l0.94-6.77c0.05-0.33,0.08-0.63,0.08-0.9
					c0-1.07-0.41-1.61-1.24-1.61c-0.52,0-1.17,0.37-1.95,1.12c-0.78,0.75-1.18,1.2-1.2,1.36l-0.95,6.79h-1.98l1.49-10.7H153.81z"/>
				<path d="M177.53,83.45l-1.48,10.7h-1.98l0.19-1.23l-0.05-0.06c-0.92,1-1.86,1.5-2.83,1.5c-0.96,0-1.77-0.41-2.45-1.24
					c-0.67-0.83-1.01-1.83-1.01-3c0-2.03,0.63-3.71,1.88-5.03c1.25-1.32,3-1.98,5.24-1.98C175.97,83.12,176.79,83.23,177.53,83.45z
					 M174.5,91.06l0.86-6.18c-0.21-0.02-0.42-0.02-0.62-0.02c-1.56,0-2.75,0.51-3.56,1.52c-0.81,1.01-1.22,2.14-1.22,3.39
					c0,0.86,0.2,1.56,0.59,2.11c0.39,0.55,0.89,0.82,1.49,0.82c0.48,0,1.01-0.24,1.58-0.73C174.19,91.49,174.49,91.18,174.5,91.06z"
					/>
				<path d="M195.73,77.9l-2.24,16.25c-0.77,0.22-1.66,0.34-2.68,0.34c-1.77,0-3.14-0.43-4.09-1.29c-0.96-0.86-1.43-2.08-1.43-3.67
					c0-1.55,0.62-3.01,1.86-4.37c1.24-1.36,2.93-2.04,5.05-2.04h0.83l0.71-5.22H195.73z M191.72,92.77l1.09-7.96h-0.51
					c-1.49,0-2.69,0.46-3.6,1.38s-1.37,2.02-1.37,3.3c0,1.06,0.3,1.88,0.9,2.46c0.6,0.58,1.46,0.87,2.58,0.87
					C191.21,92.81,191.51,92.8,191.72,92.77z"/>
				<path d="M205.95,83.45l-1.48,10.7h-1.98l0.2-1.23l-0.05-0.06c-0.92,1-1.86,1.5-2.83,1.5c-0.96,0-1.77-0.41-2.45-1.24
					c-0.67-0.83-1.01-1.83-1.01-3c0-2.03,0.62-3.71,1.88-5.03c1.25-1.32,3-1.98,5.24-1.98C204.39,83.12,205.21,83.23,205.95,83.45z
					 M202.92,91.06l0.86-6.18c-0.21-0.02-0.42-0.02-0.61-0.02c-1.56,0-2.75,0.51-3.56,1.52c-0.81,1.01-1.22,2.14-1.22,3.39
					c0,0.86,0.2,1.56,0.59,2.11c0.39,0.55,0.89,0.82,1.49,0.82c0.48,0,1.01-0.24,1.58-0.73C202.61,91.49,202.91,91.18,202.92,91.06z
					"/>
				<path d="M211.26,77.9l-2.25,16.25h-1.98l2.25-16.25H211.26z"/>
				<path d="M221.3,83.45l-1.48,10.7h-1.98l0.19-1.23l-0.05-0.06c-0.92,1-1.86,1.5-2.83,1.5c-0.96,0-1.77-0.41-2.44-1.24
					c-0.67-0.83-1.01-1.83-1.01-3c0-2.03,0.63-3.71,1.88-5.03c1.25-1.32,3-1.98,5.24-1.98C219.74,83.12,220.57,83.23,221.3,83.45z
					 M218.28,91.06l0.86-6.18c-0.21-0.02-0.42-0.02-0.62-0.02c-1.56,0-2.75,0.51-3.56,1.52c-0.81,1.01-1.22,2.14-1.22,3.39
					c0,0.86,0.2,1.56,0.59,2.11c0.39,0.55,0.89,0.82,1.49,0.82c0.48,0,1.01-0.24,1.58-0.73C217.97,91.49,218.26,91.18,218.28,91.06z
					"/>
				<path d="M225.84,83.45l-0.26,1.85c1.22-1.34,2.44-2.01,3.65-2.01c1.35,0,2.14,0.8,2.38,2.41c1.28-1.61,2.58-2.41,3.92-2.41
					c0.74,0,1.34,0.26,1.8,0.78c0.45,0.52,0.68,1.25,0.68,2.19c0,0.3-0.02,0.62-0.07,0.97l-0.96,6.94H235l0.98-7.03
					c0.04-0.24,0.06-0.46,0.06-0.67c0-1.05-0.38-1.57-1.13-1.57c-0.19,0-0.4,0.04-0.63,0.12c-0.23,0.08-0.48,0.22-0.77,0.4
					c-0.28,0.19-0.66,0.52-1.15,1.01c-0.48,0.49-0.73,0.8-0.76,0.94l-0.96,6.79h-1.98l0.93-6.77c0.05-0.33,0.08-0.63,0.08-0.9
					c0-1.07-0.41-1.61-1.24-1.61c-0.52,0-1.18,0.37-1.95,1.12c-0.78,0.75-1.18,1.2-1.2,1.36l-0.95,6.79h-1.98l1.49-10.7H225.84z"/>
				<path d="M250.51,80.74l-0.38,2.71c0.53-0.22,1.13-0.33,1.78-0.33c1.23,0,2.27,0.47,3.1,1.42c0.83,0.95,1.25,2.13,1.25,3.56
					c0,1.7-0.57,3.19-1.7,4.47c-1.13,1.28-2.67,1.92-4.64,1.92h-1.31l-0.7,5.14h-1.98l1.86-13.53c-0.43,0.31-0.81,0.71-1.16,1.21
					c-0.35,0.5-0.54,0.74-0.59,0.74c-0.06,0-0.09-0.05-0.09-0.15c0-0.36,0.2-0.87,0.6-1.54c0.4-0.67,0.88-1.23,1.43-1.69l0.54-3.93
					H250.51z M249.93,84.95l-1.07,7.82h0.96c1.35,0,2.42-0.46,3.22-1.39c0.8-0.93,1.2-2.02,1.2-3.28c0-1.09-0.28-1.93-0.85-2.54
					c-0.56-0.61-1.28-0.91-2.15-0.91C250.78,84.65,250.34,84.75,249.93,84.95z"/>
				<path d="M266.16,91.36l-0.29,1.93c-1.06,0.8-2.23,1.2-3.5,1.2c-1.32,0-2.39-0.47-3.19-1.41c-0.8-0.94-1.2-2.2-1.2-3.76
					c0-1.75,0.48-3.21,1.44-4.4c0.96-1.19,2.14-1.79,3.53-1.79c1.07,0,1.95,0.42,2.66,1.25c0.71,0.83,1.06,1.91,1.06,3.23
					c0,0.33-0.02,0.66-0.07,1h-6.55c-0.06,0.36-0.09,0.7-0.09,1.02c0,0.98,0.26,1.76,0.79,2.33c0.53,0.57,1.19,0.86,1.99,0.86
					C263.72,92.81,264.86,92.33,266.16,91.36z M260.36,87.19h4.4c0-0.75-0.17-1.33-0.5-1.76c-0.33-0.43-0.8-0.65-1.4-0.65
					C261.72,84.79,260.89,85.59,260.36,87.19z"/>
				<path d="M271.64,83.45l-0.31,2.04l0.05,0.05c0.62-0.91,1.12-1.51,1.48-1.8c0.37-0.29,0.8-0.44,1.3-0.44
					c0.31,0,0.6,0.05,0.87,0.16v2.29c-0.42-0.24-0.82-0.36-1.22-0.36c-0.39,0-0.74,0.1-1.04,0.3c-0.3,0.2-0.67,0.62-1.11,1.27
					c-0.43,0.65-0.66,1.04-0.67,1.18l-0.82,6.03h-1.98l1.47-10.7H271.64z"/>
				<path d="M279.4,77.9l-2.25,16.25h-1.98l2.25-16.25H279.4z"/>
				<path d="M283.02,83.45l-1.47,10.7h-1.98l1.47-10.7H283.02z M281.25,80.1c0-0.33,0.11-0.6,0.34-0.83
					c0.22-0.23,0.49-0.34,0.8-0.34c0.31,0,0.58,0.12,0.81,0.34c0.22,0.23,0.34,0.51,0.34,0.83c0,0.32-0.11,0.59-0.34,0.82
					c-0.23,0.23-0.49,0.34-0.81,0.34c-0.31,0-0.58-0.11-0.8-0.34C281.37,80.69,281.25,80.42,281.25,80.1z"/>
				<path d="M287.58,83.45l-0.26,1.89l0.05,0.04c1.12-1.4,2.28-2.09,3.48-2.09c0.81,0,1.45,0.3,1.89,0.91
					c0.45,0.61,0.67,1.39,0.67,2.36c0,0.27-0.02,0.55-0.07,0.85l-1.01,6.75h-1.96l0.96-6.82c0.04-0.24,0.06-0.46,0.06-0.66
					c0-0.56-0.11-0.99-0.34-1.28c-0.23-0.29-0.51-0.44-0.86-0.44c-0.2,0-0.42,0.05-0.67,0.15c-0.25,0.1-0.51,0.26-0.8,0.47
					c-0.28,0.21-0.63,0.53-1.04,0.95c-0.42,0.43-0.63,0.7-0.65,0.81l-0.96,6.82h-1.96l1.47-10.7H287.58z"/>
				<path d="M305.55,77.9l-2.24,16.25c-0.77,0.22-1.66,0.34-2.68,0.34c-1.77,0-3.14-0.43-4.09-1.29c-0.96-0.86-1.43-2.08-1.43-3.67
					c0-1.55,0.62-3.01,1.86-4.37c1.24-1.36,2.93-2.04,5.05-2.04h0.83l0.71-5.22H305.55z M301.54,92.77l1.09-7.96h-0.51
					c-1.49,0-2.69,0.46-3.6,1.38s-1.37,2.02-1.37,3.3c0,1.06,0.3,1.88,0.9,2.46c0.6,0.58,1.46,0.87,2.58,0.87
					C301.03,92.81,301.33,92.8,301.54,92.77z"/>
				<path d="M315.59,83.45l-1.5,10.7h-1.96l0.18-1.81c-1.21,1.32-2.36,1.98-3.46,1.98c-0.71,0-1.31-0.26-1.8-0.77
					c-0.49-0.52-0.73-1.25-0.73-2.21c0-0.27,0.02-0.55,0.06-0.83l0.98-7.06h1.98l-0.98,7.06c-0.03,0.23-0.05,0.45-0.05,0.65
					c0,1.07,0.39,1.61,1.16,1.61c0.81,0,1.87-0.79,3.16-2.36l0.96-6.96H315.59z"/>
				<path d="M320.47,83.45l-0.26,1.89l0.05,0.04c1.12-1.4,2.28-2.09,3.48-2.09c0.81,0,1.45,0.3,1.89,0.91
					c0.45,0.61,0.67,1.39,0.67,2.36c0,0.27-0.02,0.55-0.07,0.85l-1.01,6.75h-1.96l0.96-6.82c0.04-0.24,0.06-0.46,0.06-0.66
					c0-0.56-0.11-0.99-0.34-1.28c-0.23-0.29-0.51-0.44-0.86-0.44c-0.2,0-0.42,0.05-0.67,0.15c-0.25,0.1-0.51,0.26-0.8,0.47
					c-0.28,0.21-0.63,0.53-1.04,0.95c-0.42,0.43-0.63,0.7-0.65,0.81l-0.96,6.82h-1.96l1.47-10.7H320.47z"/>
				<path d="M337.67,83.45l-0.2,1.58h-2.03c0.46,0.67,0.7,1.37,0.7,2.12c0,0.85-0.19,1.61-0.57,2.26c-0.38,0.65-0.84,1.11-1.38,1.38
					c-0.55,0.27-1.25,0.48-2.11,0.64c-0.86,0.16-1.4,0.32-1.63,0.48c-0.23,0.16-0.34,0.35-0.34,0.56c0,0.16,0.1,0.31,0.29,0.45
					c0.2,0.14,0.91,0.35,2.14,0.66c1.23,0.3,2.09,0.71,2.58,1.22c0.49,0.51,0.74,1.11,0.74,1.8c0,0.87-0.41,1.6-1.21,2.18
					c-0.81,0.58-1.83,0.87-3.07,0.87c-1.33,0-2.42-0.26-3.28-0.79c-0.86-0.53-1.28-1.19-1.28-1.98c0-1.03,1.01-1.77,3.02-2.21
					c-1.22-0.46-1.83-1.09-1.83-1.88c0-0.41,0.19-0.8,0.56-1.16c0.37-0.36,0.88-0.63,1.52-0.82c-1.26-0.61-1.89-1.64-1.89-3.07
					c0-1.2,0.38-2.21,1.15-3.04c0.76-0.82,1.68-1.23,2.76-1.23H337.67z M331.73,98.11c0.68,0,1.22-0.12,1.62-0.37
					c0.4-0.25,0.61-0.57,0.61-0.96c0-0.39-0.33-0.74-0.99-1.05c-0.66-0.31-1.11-0.47-1.35-0.47c-0.3,0-0.82,0.16-1.58,0.48
					c-0.76,0.32-1.13,0.68-1.13,1.09c0,0.4,0.25,0.71,0.76,0.94C330.17,97.99,330.86,98.11,331.73,98.11z M332.18,89.74
					c0.6,0,1.09-0.25,1.48-0.75c0.38-0.5,0.58-1.08,0.58-1.75c0-0.63-0.18-1.14-0.53-1.54c-0.35-0.4-0.8-0.6-1.34-0.6
					c-0.53,0-1.01,0.25-1.44,0.76c-0.43,0.5-0.64,1.08-0.64,1.72c0,0.63,0.18,1.15,0.54,1.55
					C331.18,89.54,331.63,89.74,332.18,89.74z"/>
				<path d="M347.66,83.45l-1.48,10.7h-1.98l0.19-1.23l-0.05-0.06c-0.92,1-1.86,1.5-2.83,1.5c-0.96,0-1.77-0.41-2.44-1.24
					c-0.67-0.83-1.01-1.83-1.01-3c0-2.03,0.63-3.71,1.88-5.03c1.25-1.32,3-1.98,5.24-1.98C346.1,83.12,346.92,83.23,347.66,83.45z
					 M344.63,91.06l0.86-6.18c-0.21-0.02-0.42-0.02-0.62-0.02c-1.56,0-2.75,0.51-3.56,1.52c-0.81,1.01-1.22,2.14-1.22,3.39
					c0,0.86,0.2,1.56,0.59,2.11c0.39,0.55,0.89,0.82,1.49,0.82c0.48,0,1.01-0.24,1.58-0.73C344.33,91.49,344.62,91.18,344.63,91.06z
					"/>
				<path d="M352.37,83.45l-0.26,1.89l0.05,0.04c1.12-1.4,2.28-2.09,3.48-2.09c0.81,0,1.45,0.3,1.89,0.91
					c0.45,0.61,0.67,1.39,0.67,2.36c0,0.27-0.02,0.55-0.07,0.85l-1.01,6.75h-1.96l0.96-6.82c0.04-0.24,0.06-0.46,0.06-0.66
					c0-0.56-0.11-0.99-0.34-1.28c-0.23-0.29-0.51-0.44-0.86-0.44c-0.2,0-0.42,0.05-0.67,0.15c-0.25,0.1-0.51,0.26-0.8,0.47
					c-0.28,0.21-0.63,0.53-1.04,0.95c-0.42,0.43-0.63,0.7-0.65,0.81l-0.96,6.82h-1.96l1.47-10.7H352.37z"/>
				<path d="M358.61,97.58l0.14-1.05c1.03-0.34,1.54-1.02,1.54-2.05c-0.61-0.28-0.91-0.69-0.91-1.22c0-0.41,0.14-0.75,0.42-1.01
					c0.28-0.26,0.63-0.4,1.05-0.4c0.42,0,0.77,0.18,1.05,0.54c0.28,0.36,0.42,0.81,0.42,1.34c0,0.88-0.33,1.67-0.99,2.37
					C360.67,96.82,359.76,97.31,358.61,97.58z"/>
				<path d="M372.84,80.74l-0.38,2.71c0.53-0.22,1.13-0.33,1.78-0.33c1.23,0,2.26,0.47,3.1,1.42c0.83,0.95,1.25,2.13,1.25,3.56
					c0,1.7-0.56,3.19-1.69,4.47c-1.13,1.28-2.68,1.92-4.64,1.92h-1.31l-0.7,5.14h-1.98l1.86-13.53c-0.43,0.31-0.81,0.71-1.16,1.21
					c-0.35,0.5-0.54,0.74-0.59,0.74c-0.06,0-0.09-0.05-0.09-0.15c0-0.36,0.2-0.87,0.6-1.54c0.4-0.67,0.88-1.23,1.43-1.69l0.54-3.93
					H372.84z M372.25,84.95l-1.07,7.82h0.96c1.35,0,2.42-0.46,3.22-1.39c0.8-0.93,1.2-2.02,1.2-3.28c0-1.09-0.28-1.93-0.84-2.54
					c-0.56-0.61-1.28-0.91-2.15-0.91C373.1,84.65,372.66,84.75,372.25,84.95z"/>
				<path d="M383.73,83.45l-0.31,2.04l0.05,0.05c0.63-0.91,1.12-1.51,1.48-1.8c0.37-0.29,0.8-0.44,1.3-0.44
					c0.31,0,0.6,0.05,0.87,0.16v2.29c-0.42-0.24-0.83-0.36-1.22-0.36c-0.39,0-0.73,0.1-1.04,0.3c-0.31,0.2-0.67,0.62-1.11,1.27
					c-0.43,0.65-0.66,1.04-0.67,1.18l-0.82,6.03h-1.98l1.47-10.7H383.73z"/>
				<path d="M391.18,83.45l-1.47,10.7h-1.98l1.47-10.7H391.18z M389.42,80.1c0-0.33,0.11-0.6,0.34-0.83
					c0.22-0.23,0.49-0.34,0.8-0.34c0.31,0,0.58,0.12,0.8,0.34c0.23,0.23,0.34,0.51,0.34,0.83c0,0.32-0.11,0.59-0.34,0.82
					c-0.22,0.23-0.49,0.34-0.8,0.34c-0.31,0-0.58-0.11-0.8-0.34C389.53,80.69,389.42,80.42,389.42,80.1z"/>
				<path d="M395.57,83.45l-0.26,1.85c1.22-1.34,2.44-2.01,3.65-2.01c1.35,0,2.14,0.8,2.38,2.41c1.28-1.61,2.58-2.41,3.92-2.41
					c0.74,0,1.34,0.26,1.8,0.78c0.45,0.52,0.68,1.25,0.68,2.19c0,0.3-0.02,0.62-0.07,0.97l-0.96,6.94h-1.98l0.98-7.03
					c0.04-0.24,0.06-0.46,0.06-0.67c0-1.05-0.38-1.57-1.13-1.57c-0.19,0-0.4,0.04-0.63,0.12c-0.23,0.08-0.48,0.22-0.77,0.4
					c-0.28,0.19-0.66,0.52-1.15,1.01c-0.48,0.49-0.73,0.8-0.76,0.94l-0.96,6.79h-1.98l0.93-6.77c0.05-0.33,0.08-0.63,0.08-0.9
					c0-1.07-0.41-1.61-1.24-1.61c-0.52,0-1.18,0.37-1.95,1.12c-0.78,0.75-1.18,1.2-1.2,1.36l-0.95,6.79h-1.98l1.49-10.7H395.57z"/>
				<path d="M419.29,83.45l-1.48,10.7h-1.98l0.19-1.23l-0.05-0.06c-0.92,1-1.86,1.5-2.83,1.5c-0.96,0-1.77-0.41-2.44-1.24
					c-0.67-0.83-1.01-1.83-1.01-3c0-2.03,0.63-3.71,1.88-5.03c1.25-1.32,3-1.98,5.24-1.98C417.73,83.12,418.56,83.23,419.29,83.45z
					 M416.27,91.06l0.86-6.18c-0.21-0.02-0.42-0.02-0.62-0.02c-1.56,0-2.75,0.51-3.56,1.52c-0.81,1.01-1.22,2.14-1.22,3.39
					c0,0.86,0.2,1.56,0.59,2.11c0.39,0.55,0.89,0.82,1.49,0.82c0.48,0,1.01-0.24,1.58-0.73C415.96,91.49,416.25,91.18,416.27,91.06z
					"/>
				<path d="M437.5,77.9l-2.24,16.25c-0.77,0.22-1.66,0.34-2.68,0.34c-1.77,0-3.13-0.43-4.09-1.29c-0.96-0.86-1.43-2.08-1.43-3.67
					c0-1.55,0.62-3.01,1.86-4.37c1.24-1.36,2.93-2.04,5.05-2.04h0.84l0.71-5.22H437.5z M433.49,92.77l1.09-7.96h-0.52
					c-1.49,0-2.69,0.46-3.6,1.38s-1.37,2.02-1.37,3.3c0,1.06,0.3,1.88,0.9,2.46c0.6,0.58,1.46,0.87,2.58,0.87
					C432.98,92.81,433.28,92.8,433.49,92.77z"/>
				<path d="M447.71,83.45l-1.48,10.7h-1.98l0.19-1.23l-0.05-0.06c-0.92,1-1.86,1.5-2.83,1.5c-0.96,0-1.77-0.41-2.44-1.24
					c-0.67-0.83-1.01-1.83-1.01-3c0-2.03,0.63-3.71,1.88-5.03c1.25-1.32,3-1.98,5.24-1.98C446.15,83.12,446.98,83.23,447.71,83.45z
					 M444.69,91.06l0.86-6.18c-0.21-0.02-0.42-0.02-0.62-0.02c-1.56,0-2.75,0.51-3.56,1.52c-0.81,1.01-1.22,2.14-1.22,3.39
					c0,0.86,0.2,1.56,0.59,2.11c0.39,0.55,0.89,0.82,1.49,0.82c0.48,0,1.01-0.24,1.58-0.73C444.38,91.49,444.67,91.18,444.69,91.06z
					"/>
				<path d="M453.03,77.9l-2.25,16.25h-1.98l2.25-16.25H453.03z"/>
				<path d="M463.07,83.45l-1.48,10.7h-1.98l0.2-1.23l-0.05-0.06c-0.92,1-1.86,1.5-2.83,1.5c-0.96,0-1.77-0.41-2.45-1.24
					c-0.67-0.83-1.01-1.83-1.01-3c0-2.03,0.62-3.71,1.88-5.03c1.25-1.32,3-1.98,5.24-1.98C461.51,83.12,462.33,83.23,463.07,83.45z
					 M460.04,91.06l0.86-6.18c-0.21-0.02-0.42-0.02-0.61-0.02c-1.56,0-2.75,0.51-3.56,1.52c-0.81,1.01-1.22,2.14-1.22,3.39
					c0,0.86,0.2,1.56,0.59,2.11c0.39,0.55,0.89,0.82,1.49,0.82c0.48,0,1.01-0.24,1.58-0.73S460.03,91.18,460.04,91.06z"/>
				<path d="M467.61,83.45l-0.26,1.85c1.22-1.34,2.44-2.01,3.65-2.01c1.35,0,2.15,0.8,2.38,2.41c1.28-1.61,2.58-2.41,3.92-2.41
					c0.75,0,1.34,0.26,1.8,0.78c0.45,0.52,0.68,1.25,0.68,2.19c0,0.3-0.02,0.62-0.07,0.97l-0.96,6.94h-1.98l0.98-7.03
					c0.04-0.24,0.06-0.46,0.06-0.67c0-1.05-0.38-1.57-1.13-1.57c-0.19,0-0.4,0.04-0.63,0.12c-0.23,0.08-0.48,0.22-0.76,0.4
					c-0.28,0.19-0.66,0.52-1.15,1.01c-0.48,0.49-0.74,0.8-0.76,0.94l-0.96,6.79h-1.98l0.94-6.77c0.05-0.33,0.08-0.63,0.08-0.9
					c0-1.07-0.41-1.61-1.24-1.61c-0.52,0-1.17,0.37-1.95,1.12c-0.78,0.75-1.18,1.2-1.2,1.36l-0.95,6.79h-1.98l1.5-10.7H467.61z"/>
				<path d="M492.28,80.74l-0.38,2.71c0.53-0.22,1.13-0.33,1.78-0.33c1.23,0,2.26,0.47,3.1,1.42c0.83,0.95,1.25,2.13,1.25,3.56
					c0,1.7-0.56,3.19-1.69,4.47c-1.13,1.28-2.68,1.92-4.64,1.92h-1.31l-0.7,5.14h-1.98l1.86-13.53c-0.43,0.31-0.81,0.71-1.16,1.21
					c-0.35,0.5-0.54,0.74-0.59,0.74c-0.06,0-0.09-0.05-0.09-0.15c0-0.36,0.2-0.87,0.6-1.54c0.4-0.67,0.88-1.23,1.43-1.69l0.54-3.93
					H492.28z M491.7,84.95l-1.07,7.82h0.96c1.35,0,2.42-0.46,3.22-1.39c0.8-0.93,1.2-2.02,1.2-3.28c0-1.09-0.28-1.93-0.84-2.54
					s-1.28-0.91-2.15-0.91C492.55,84.65,492.11,84.75,491.7,84.95z"/>
				<path d="M507.93,91.36l-0.29,1.93c-1.07,0.8-2.23,1.2-3.5,1.2c-1.32,0-2.39-0.47-3.19-1.41c-0.8-0.94-1.2-2.2-1.2-3.76
					c0-1.75,0.48-3.21,1.44-4.4c0.96-1.19,2.14-1.79,3.53-1.79c1.07,0,1.95,0.42,2.66,1.25c0.71,0.83,1.06,1.91,1.06,3.23
					c0,0.33-0.02,0.66-0.07,1h-6.55c-0.06,0.36-0.09,0.7-0.09,1.02c0,0.98,0.26,1.76,0.79,2.33c0.53,0.57,1.19,0.86,1.99,0.86
					C505.49,92.81,506.63,92.33,507.93,91.36z M502.13,87.19h4.39c0-0.75-0.17-1.33-0.5-1.76c-0.33-0.43-0.8-0.65-1.4-0.65
					C503.49,84.79,502.65,85.59,502.13,87.19z"/>
				<path d="M513.85,77.9l-2.25,16.25h-1.98l2.25-16.25H513.85z"/>
				<path d="M523.9,83.45l-1.48,10.7h-1.98l0.2-1.23l-0.05-0.06c-0.92,1-1.86,1.5-2.83,1.5c-0.96,0-1.77-0.41-2.45-1.24
					c-0.67-0.83-1.01-1.83-1.01-3c0-2.03,0.62-3.71,1.88-5.03c1.25-1.32,3-1.98,5.24-1.98C522.34,83.12,523.16,83.23,523.9,83.45z
					 M520.87,91.06l0.86-6.18c-0.21-0.02-0.42-0.02-0.61-0.02c-1.56,0-2.75,0.51-3.56,1.52c-0.81,1.01-1.22,2.14-1.22,3.39
					c0,0.86,0.2,1.56,0.59,2.11c0.39,0.55,0.89,0.82,1.49,0.82c0.48,0,1.01-0.24,1.58-0.73C520.56,91.49,520.86,91.18,520.87,91.06z
					"/>
				<path d="M533.8,83.45l-7.53,16.18h-2.11l2.87-6.16l-2.04-10.02h1.98l1.46,7.36l3.31-7.36H533.8z"/>
				<path d="M543.16,83.45l-1.48,10.7h-1.98l0.2-1.23l-0.05-0.06c-0.92,1-1.86,1.5-2.83,1.5c-0.96,0-1.77-0.41-2.45-1.24
					c-0.67-0.83-1.01-1.83-1.01-3c0-2.03,0.62-3.71,1.88-5.03c1.25-1.32,3-1.98,5.24-1.98C541.59,83.12,542.42,83.23,543.16,83.45z
					 M540.13,91.06l0.86-6.18c-0.21-0.02-0.42-0.02-0.61-0.02c-1.56,0-2.75,0.51-3.56,1.52c-0.81,1.01-1.22,2.14-1.22,3.39
					c0,0.86,0.2,1.56,0.59,2.11c0.39,0.55,0.89,0.82,1.49,0.82c0.48,0,1.01-0.24,1.58-0.73S540.11,91.18,540.13,91.06z"/>
				<path d="M547.86,83.45l-0.27,1.89l0.05,0.04c1.12-1.4,2.28-2.09,3.48-2.09c0.81,0,1.45,0.3,1.89,0.91
					c0.45,0.61,0.67,1.39,0.67,2.36c0,0.27-0.02,0.55-0.07,0.85l-1.01,6.75h-1.96l0.96-6.82c0.04-0.24,0.06-0.46,0.06-0.66
					c0-0.56-0.12-0.99-0.34-1.28c-0.23-0.29-0.52-0.44-0.86-0.44c-0.2,0-0.42,0.05-0.67,0.15c-0.25,0.1-0.51,0.26-0.79,0.47
					c-0.28,0.21-0.63,0.53-1.05,0.95c-0.41,0.43-0.63,0.7-0.65,0.81l-0.96,6.82h-1.96l1.47-10.7H547.86z"/>
				<path d="M565.08,83.45l-1.48,10.7h-1.98l0.2-1.23l-0.05-0.06c-0.92,1-1.86,1.5-2.83,1.5c-0.96,0-1.77-0.41-2.45-1.24
					c-0.67-0.83-1.01-1.83-1.01-3c0-2.03,0.62-3.71,1.88-5.03c1.25-1.32,3-1.98,5.24-1.98C563.52,83.12,564.35,83.23,565.08,83.45z
					 M562.06,91.06l0.86-6.18c-0.21-0.02-0.42-0.02-0.61-0.02c-1.56,0-2.75,0.51-3.56,1.52c-0.81,1.01-1.22,2.14-1.22,3.39
					c0,0.86,0.2,1.56,0.59,2.11c0.39,0.55,0.89,0.82,1.49,0.82c0.48,0,1.01-0.24,1.58-0.73S562.04,91.18,562.06,91.06z"/>
				<path d="M569.79,83.45l-0.26,1.89l0.05,0.04c1.12-1.4,2.28-2.09,3.48-2.09c0.81,0,1.45,0.3,1.89,0.91
					c0.45,0.61,0.67,1.39,0.67,2.36c0,0.27-0.02,0.55-0.07,0.85l-1.01,6.75h-1.96l0.96-6.82c0.04-0.24,0.06-0.46,0.06-0.66
					c0-0.56-0.11-0.99-0.34-1.28c-0.23-0.29-0.51-0.44-0.86-0.44c-0.2,0-0.42,0.05-0.67,0.15c-0.25,0.1-0.51,0.26-0.8,0.47
					c-0.28,0.21-0.63,0.53-1.04,0.95c-0.42,0.43-0.63,0.7-0.65,0.81l-0.96,6.82h-1.96l1.47-10.7H569.79z"/>
			</g>
		</g>
	</g>
</g>
</svg>
