<?xml version="1.0" encoding="UTF-8" standalone="no"?>
<svg
   xmlns:dc="http://purl.org/dc/elements/1.1/"
   xmlns:cc="http://creativecommons.org/ns#"
   xmlns:rdf="http://www.w3.org/1999/02/22-rdf-syntax-ns#"
   xmlns:svg="http://www.w3.org/2000/svg"
   xmlns="http://www.w3.org/2000/svg"
   xmlns:xlink="http://www.w3.org/1999/xlink"
   xmlns:sodipodi="http://sodipodi.sourceforge.net/DTD/sodipodi-0.dtd"
   xmlns:inkscape="http://www.inkscape.org/namespaces/inkscape"
   width="685.848"
   height="610.946"
   viewBox="0 0 181.464 161.646"
   version="1.1"
   id="svg273"
   sodipodi:docname="Insignia of the Indonesian Traffic Police (1).svg"
   inkscape:version="1.0.1 (3bc2e813f5, 2020-09-07)">
  <metadata
     id="metadata277">
    <rdf:RDF>
      <cc:Work
         rdf:about="">
        <dc:format>image/svg+xml</dc:format>
        <dc:type
           rdf:resource="http://purl.org/dc/dcmitype/StillImage" />
      </cc:Work>
    </rdf:RDF>
  </metadata>
  <sodipodi:namedview
     pagecolor="#ffffff"
     bordercolor="#666666"
     borderopacity="1"
     objecttolerance="10"
     gridtolerance="10"
     guidetolerance="10"
     inkscape:pageopacity="0"
     inkscape:pageshadow="2"
     inkscape:window-width="1366"
     inkscape:window-height="705"
     id="namedview275"
     showgrid="false"
     inkscape:zoom="0.52545804"
     inkscape:cx="366.27306"
     inkscape:cy="305.04919"
     inkscape:window-x="-8"
     inkscape:window-y="-8"
     inkscape:window-maximized="1"
     inkscape:current-layer="svg273" />
  <style
     id="style2"><![CDATA[.B{fill-rule:evenodd}.C{fill:#fff}.D{stroke:#302f8b}.E{stroke:#2f2e8b}.F{opacity:.995}.G{fill:#2f2e8b}.H{fill:#302f8b}.I{opacity:.997}.J{stroke-width:.465}.K{stroke-width:.556}.L{stroke-width:.9}.M{stroke-width:.819}]]></style>
  <g
     class="E"
     id="g8">
    <path
       d="M 49.693,13.267 C 49.358,17.208 41.18,27.096 35.26,28.1 c 7.532,12.203 17.459,22.031 17.928,32.868 0.663,15.337 -17.202,41.099 -14.32,51.857 7.441,23.815 29.833,12.532 51.803,34.387 21.97,-21.854 44.361,-10.571 51.802,-34.387 C 145.355,102.067 127.49,76.306 128.153,60.968 128.622,50.131 138.549,40.304 146.081,28.1 140.161,27.096 131.984,17.207 131.648,13.267 113.59,15.326 101.495,9.159 90.671,1.24 79.847,9.16 67.752,15.326 49.693,13.267 Z"
       fill="none"
       stroke-width="2"
       id="path4"
       sodipodi:nodetypes="ccccccccccc" />
    <path
       d="M 90.671,6.435 C 80.667,13.32 68.739,18.756 52.692,17.812 c -0.272,0.514 -0.513,1.031 -0.83,1.555 -1.089,1.798 -2.478,3.623 -4.07,5.363 -1.777,1.943 -3.734,3.792 -5.949,5.24 6.9,9.916 15.199,19.067 15.707,30.809 0.409,9.464 -4.303,19.813 -8.322,29.506 -2.01,4.846 -3.903,9.469 -5.066,13.318 -1.155,3.823 -1.383,6.854 -1.076,8.051 1.639,5.169 3.795,7.949 6.557,10.033 2.788,2.104 6.45,3.489 10.977,4.898 8.267,2.574 19.241,5.377 30.053,14.752 10.812,-9.375 21.786,-12.178 30.053,-14.752 4.526,-1.41 8.188,-2.794 10.977,-4.898 2.762,-2.084 4.917,-4.864 6.557,-10.033 0.307,-1.197 0.079,-4.228 -1.076,-8.051 -1.163,-3.849 -3.057,-8.472 -5.066,-13.318 -4.019,-9.693 -8.731,-20.042 -8.322,-29.506 0.508,-11.742 8.807,-20.893 15.707,-30.809 -2.216,-1.448 -4.172,-3.298 -5.949,-5.24 -1.592,-1.741 -2.982,-3.565 -4.07,-5.363 -0.317,-0.524 -0.558,-1.041 -0.83,-1.555 -16.047,0.944 -27.975,-4.493 -37.979,-11.377 z"
       stroke-width="1.065"
       class="C"
       id="path6" />
  </g>
  <path
     d="M52.122 18.91v25.829c2.488 4.15 4.418 8.459 5.14 13.165V17.909c-1.486.025-3.008-.005-4.57-.097l-.57 1.098zm10.28-1.317v109.54l5.14 1.613V16.79c-1.661.342-3.373.613-5.14.803zm10.279-2.124v115.12c1.677.661 3.395 1.404 5.14 2.259V13.591c-1.657.696-3.368 1.327-5.14 1.877zm10.279-4.32v124.529c1.704 1.049 3.421 2.227 5.14 3.557V8.139c-1.656 1.058-3.366 2.068-5.14 3.01zm10.279-3.01v131.097c1.719-1.331 3.436-2.509 5.14-3.558V11.149c-1.774-.942-3.484-1.952-5.14-3.01zm10.28 5.453v119.256c1.745-.855 3.462-1.599 5.14-2.259V15.468c-1.772-.55-3.482-1.181-5.14-1.877zM113.8 16.79v111.956l5.14-1.613V17.593c-1.767-.19-3.479-.461-5.14-.803zm10.279 1.12v39.995c.722-4.706 2.652-9.016 5.14-13.166v-25.83c-.199-.368-.378-.733-.57-1.097a60.72 60.72 0 0 1-4.57.097zm10.279 7.682v11.513l5.14-7.134c-1.885-1.232-3.581-2.755-5.14-4.379zm0 70.187v23.412c1.535-1.809 2.828-4.162 3.898-7.537.307-1.197.079-4.227-1.076-8.051-.713-2.359-1.701-5.011-2.822-7.824zm-5.14 27.484V83.305c-2.3-5.671-4.375-11.437-5.14-17.01v59.181c1.902-.675 3.616-1.388 5.14-2.213zm-5.14-56.969v-8.39c-.145.942-.245 1.899-.287 2.875-.078 1.81.032 3.652.287 5.515zm-66.817 59.181V66.291c-.764 5.575-2.84 11.342-5.14 17.015v39.957c1.524.825 3.238 1.537 5.14 2.213zm-10.28-6.285V95.78c-1.12 2.813-2.108 5.465-2.821 7.823-1.155 3.823-1.383 6.854-1.076 8.051 1.07 3.375 2.362 5.727 3.897 7.536zm0-82.086V25.592c-1.559 1.623-3.255 3.146-5.14 4.378 1.675 2.407 3.431 4.769 5.14 7.134z"
     class="B F G"
     id="path10" />
  <g
     opacity="0.999"
     class="B"
     id="g20">
    <use
       xlink:href="#B"
       stroke="#ffffff"
       class="F H K"
       id="use12"
       x="0"
       y="0"
       width="100%"
       height="100%" />
    <use
       xlink:href="#C"
       class="C F"
       id="use14"
       x="0"
       y="0"
       width="100%"
       height="100%" />
    <use
       xlink:href="#B"
       x="34.611"
       stroke="#ffffff"
       class="F H K"
       id="use16"
       y="0"
       width="100%"
       height="100%" />
    <use
       xlink:href="#C"
       x="34.611"
       class="C F"
       id="use18"
       y="0"
       width="100%"
       height="100%" />
  </g>
  <g
     class="B"
     id="g26">
    <use
       xlink:href="#B"
       x="17.305"
       y="-7.4840002"
       stroke="#ffffff"
       class="F H K"
       id="use22"
       width="100%"
       height="100%" />
    <use
       xlink:href="#C"
       x="17.305"
       y="-7.4840002"
       class="C F"
       id="use24"
       width="100%"
       height="100%" />
  </g>
  <path
     d="M54.969 101.362a.72.72 0 0 0-.717.789l.15 1.565c.242 2.521.539 5.071 1.681 7.135 1.089 1.97 3.114 3.334 6.027 3.397l1.747 1.569a10.45 10.45 0 0 0-1.899.229c-.99.225-1.791.516-2.456.696s-1.166.247-1.662.131l-1.672-.389a.72.72 0 0 0-.65 1.232l1.266 1.159v-.001c2.517 2.307 4.968 3.569 7.389 3.632 2.152.056 4.128-.916 5.839-2.571 1.193.621 2.329 1.128 3.421 1.56l-4.726 1.552-.943.335a.72.72 0 0 0-.108 1.309l.877.484c3.618 1.999 6.174 2.288 8.137 1.549 1.647-.62 2.67-1.782 3.606-2.709 3.144 1.293 5.461 2.933 7.413 7.818a.72.72 0 0 0 .767.446l.865-.119a.72.72 0 0 0 .618-.638c.429-4.062-.728-7.054-2.841-9.08-1.609-1.543-3.691-2.521-5.924-3.28-.241-3.222-1.669-5.058-3.312-6.104-1.753-1.115-3.47-1.591-4.452-2.686l-1.041-1.162a.72.72 0 0 0-1.246.602l.264 1.539c.31 1.81.832 3.697 2.085 5.416.088.121.206.232.301.35l-2.112-.551c.336-3.568-.442-5.758-1.622-7.218-1.283-1.589-2.591-2.32-3.24-3.833v.001l-.481-1.125a.72.72 0 0 0-1.35.069l-.363 1.17c-1.083 3.499-.523 6.197.645 8.189-.485-.347-.941-.713-1.325-1.126a.72.72 0 0 0-.035-.035c-.076-.071-.123-.103-.187-.155-.163-3.135-1.475-5.071-3.008-6.314-1.611-1.306-3.241-2.045-4.2-3.299h0l-.955-1.248a.72.72 0 0 0-.572-.282z"
     class="C"
     id="path28" />
  <g
     stroke="#3e3d94"
     class="L C"
     id="g34">
    <path
       d="m 62.584,113.092 c 12.418,12.009 21.202,5.82 26.192,18.308 1.603,-15.185 -19.584,-10.102 -26.192,-18.308 z"
       id="path30" />
    <path
       d="m 69.098,124.15 c 6.823,-2.41 7.768,-2.583 10.93,-1.517 -2.405,2.141 -4.008,5.342 -10.93,1.517 z m 3.441,-12.996 c 0.593,3.456 1.909,6.722 7.519,8.859 -0.069,-6.962 -4.956,-6 -7.519,-8.859 z m -2.133,6.344 c -2.196,-1.973 -6.822,-4.611 -4.682,-11.522 1.612,3.761 5.907,3.354 4.682,11.522 z M 55.568,103.604 c 0.479,4.992 1.289,9.657 7.016,9.488 -0.022,-6.439 -4.638,-6.381 -7.016,-9.488 z m 2.005,14.408 c 4.788,4.389 8.82,4.307 12.223,0.508 -6.957,-3.588 -9.181,0.201 -12.223,-0.508 z"
       id="path32" />
  </g>
  <path
     d="M123.373 101.846c-.503-.019-1.042.149-1.569.444-.813-.184-1.625.049-2.268.439-.054.033-.104.074-.148.12-.661.432-1.237.981-1.388 1.77l.07-.199c-.424.805-.245 1.71.098 2.556.066.162.166.321.248.482-.386-.014-.77.029-1.124.126-.825.227-1.606.622-1.995 1.399l.122-.173c-.585.614-.669 1.458-.6 2.304-.547-.287-1.169-.388-1.746-.355-.064.004-.126.016-.187.036-.788.07-1.556.284-2.059.912l.156-.144c-.752.511-1.018 1.393-1.114 2.3-.018.174.022.367.019.548-.53-.468-1.225-.682-1.875-.739-.064-.006-.128-.003-.191.009-.726-.041-1.447.054-2.017.499-.018.009-.03.024-.047.034-.765.413-1.147 1.212-1.366 2.069a6.16 6.16 0 0 0-.128.762c-.459-.495-1.089-.785-1.7-.923-.765-.173-1.557-.183-2.231.198-.862.286-1.361 1.06-1.702 1.905-.214.53-.34 1.131-.406 1.75-1.439.642-2.777 1.418-3.879 2.474-2.112 2.024-3.268 5.015-2.839 9.075.034.327.287.588.613.633l.865.119c.325.045.639-.138.761-.443 1.7-4.254 3.68-6.024 6.229-7.285.745.516 1.714.817 2.889.785a.46.46 0 0 0 .01 0 .44.44 0 0 0 .012 0c.049-.001.097-.006.145-.017l.004-.001-.177.017c.367.011.693-.088 1.051-.238a4.46 4.46 0 0 0 1.185-.735c.571-.493 1.045-1.24 1.183-2.155.854.534 1.966.776 3.279.558h0l.012-.002c.031-.005.061-.012.09-.021l.012-.004.023-.008-.062.016.068-.018a.73.73 0 0 0 .169-.085c.224-.068.448-.121.671-.252.359-.211.737-.504 1.077-.889.463-.523.816-1.246.88-2.085.932.439 2.092.531 3.389.123v-.001c.01-.003.018-.003.028-.006l.026-.009.011-.004c.042-.015.082-.034.12-.057.27-.101.514-.246.759-.442.323-.259.656-.603.938-1.034.331-.506.542-1.158.563-1.864 1.052.313 2.295.172 3.564-.551l.003-.001c.328-.164.566-.406.809-.704.261-.321.515-.727.7-1.208.326-.848.341-1.957-.231-2.986.003-.017.01-.019.012-.037 1.001-.074 2.033-.538 2.958-1.481.273-.248.437-.547.59-.902.163-.38.296-.84.342-1.353.081-.905-.208-1.976-1.039-2.809-.003-.021.005-.026.003-.048-.034-.227-.113-.423-.21-.606-.196-.367-.495-.731-.906-1.034a2.79 2.79 0 0 0-1.552-.55h0zm-1.473 13.718l.02-.009c.029-.016.056-.034.083-.053l.004-.003zm4.299-6.467l-.045.046c.005-.005.011-.008.016-.013l.022-.023zm-16.351 13.547l-.033.018.028-.016z"
     class="C"
     id="path36" />
  <path
     d="M118.858 113.092c-12.418 12.009-21.202 5.82-26.192 18.308-1.603-15.185 19.584-10.102 26.192-18.308z"
     class="C D L"
     id="path38" />
  <g
     transform="matrix(0.805153,-0.593068,0.593068,0.805153,-239.45888,167.40423)"
     class="C D J"
     id="g44">
    <use
       xlink:href="#D"
       id="use40"
       x="0"
       y="0"
       width="100%"
       height="100%" />
    <use
       xlink:href="#E"
       id="use42"
       x="0"
       y="0"
       width="100%"
       height="100%" />
  </g>
  <g
     transform="rotate(-20.489032,75.021517,715.48677)"
     class="C D J"
     id="g50">
    <use
       xlink:href="#D"
       id="use46"
       x="0"
       y="0"
       width="100%"
       height="100%" />
    <use
       xlink:href="#E"
       id="use48"
       x="0"
       y="0"
       width="100%"
       height="100%" />
  </g>
  <g
     transform="rotate(-8.310002,-124.41752,1610.9597)"
     class="C D J"
     id="g56">
    <use
       xlink:href="#D"
       id="use52"
       x="0"
       y="0"
       width="100%"
       height="100%" />
    <use
       xlink:href="#E"
       id="use54"
       x="0"
       y="0"
       width="100%"
       height="100%" />
  </g>
  <g
     class="C D J"
     id="g66">
    <use
       xlink:href="#D"
       x="-219.388"
       y="-47.164001"
       id="use58"
       width="100%"
       height="100%" />
    <use
       xlink:href="#E"
       x="-219.388"
       y="-47.164001"
       id="use60"
       width="100%"
       height="100%" />
    <path
       d="m 100.615,117.115 2.244,7.371 c 0.614,0.042 3.001,-1.004 2.61,-3.273 0.489,-0.009 0.99,-2.801 -1.497,-3.131 -0.482,-1.213 -2.648,-1.495 -3.356,-0.967 z"
       id="path62" />
    <path
       d="m 100.615,117.115 c -1.896,0.592 -3.09,7.535 2.244,7.371 1.99,-0.435 0.864,-2.318 0.159,-2.434 1.052,-1.244 -0.116,-2.484 -0.76,-2.826 0.718,-1.184 0.032,-2.114 -1.643,-2.111 z"
       id="path64" />
  </g>
  <g
     class="E L"
     id="g78">
    <path
       d="m 20.368,126.895 7.56,7.843 -11.056,3.591 c 6.714,3.43 19.208,3.092 34.868,2.74 v -12.095 c -2.524,1.456 -19.088,3.822 -31.372,-2.079 z"
       class="C"
       id="path68" />
    <path
       d="m 36.291,133.939 v 11.225 l 15.449,-4.095 v -12.095 z"
       class="G"
       id="path70" />
    <path
       d="m 160.975,126.895 -7.56,7.843 11.056,3.591 c -6.714,3.43 -19.208,3.092 -34.868,2.74 v -12.095 c 2.524,1.456 19.088,3.822 31.372,-2.079 z"
       class="C"
       id="path72" />
    <path
       d="m 145.052,133.939 v 11.225 l -15.449,-4.095 v -12.095 z"
       class="G"
       id="path74" />
    <path
       d="m 38.989,133.911 c -0.878,-0.009 -1.777,0 -2.698,0.028 v 11.225 c 24.403,-3.181 34.861,16.032 54.381,16.032 19.52,0 29.977,-19.213 54.381,-16.032 V 133.939 C 115.589,133.057 108.46,149.787 90.672,149.762 73.44,149.738 66.215,134.178 38.989,133.911 Z"
       class="C"
       id="path76" />
  </g>
  <g
     class="G"
     id="g84">
    <path
       d="m 40.719,138.108 -0.184,3.45 1.075,0.052 q 0.825,0.04 1.192,-0.716 0.2,-0.415 0.232,-0.999 0.043,-0.807 -0.203,-1.25 -0.242,-0.447 -1.037,-0.485 z m 1.321,-0.857 q 0.518,0.032 0.857,0.156 0.577,0.211 0.914,0.716 0.27,0.408 0.352,0.873 0.081,0.464 0.059,0.88 -0.056,1.054 -0.542,1.765 -0.658,0.957 -1.922,0.897 l -2.403,-0.115 0.282,-5.286 z m 5.708,1.856 q 0.378,0.054 0.666,0.223 0.291,0.169 0.449,0.453 0.134,0.241 0.135,0.477 0.001,0.233 -0.082,0.751 l -0.363,2.272 -1.09,-0.156 0.376,-2.354 q 0.05,-0.312 -0.032,-0.52 -0.103,-0.291 -0.511,-0.349 -0.423,-0.061 -0.688,0.177 -0.26,0.235 -0.339,0.732 l -0.335,2.095 -1.064,-0.153 0.833,-5.216 1.064,0.153 -0.296,1.85 q 0.286,-0.304 0.611,-0.392 0.329,-0.091 0.666,-0.042 z m 4.48,3.028 q -0.115,0.037 -0.228,0.051 -0.108,0.012 -0.293,0.003 l -0.246,-0.012 q -0.346,-0.02 -0.51,0.027 -0.278,0.08 -0.351,0.367 -0.065,0.255 0.053,0.404 0.123,0.146 0.336,0.195 0.339,0.078 0.671,-0.046 0.335,-0.123 0.474,-0.619 z m -0.519,-0.61 q 0.3,0.032 0.438,0.009 0.248,-0.039 0.297,-0.231 0.06,-0.234 -0.091,-0.361 -0.146,-0.13 -0.478,-0.205 -0.372,-0.085 -0.571,0.054 -0.143,0.104 -0.236,0.315 l -1.013,-0.232 q 0.16,-0.492 0.504,-0.753 0.544,-0.407 1.557,-0.175 0.659,0.151 1.108,0.516 0.449,0.365 0.273,1.053 l -0.445,1.745 q -0.046,0.182 -0.105,0.441 -0.039,0.198 -0.005,0.28 0.034,0.082 0.125,0.151 l -0.037,0.147 -1.142,-0.261 q -0.019,-0.126 -0.011,-0.232 0.007,-0.105 0.029,-0.237 -0.274,0.174 -0.598,0.266 -0.386,0.107 -0.813,0.01 -0.545,-0.125 -0.828,-0.5 -0.278,-0.378 -0.14,-0.919 0.179,-0.702 0.83,-0.885 0.357,-0.099 0.983,-0.033 z m 0.461,-1.579 z m 4.96,1.358 q 0.029,0.009 0.046,0.017 0.022,0.007 0.089,0.03 l -0.331,1 q -0.094,-0.039 -0.169,-0.065 -0.075,-0.026 -0.122,-0.04 -0.622,-0.185 -0.962,0.135 -0.191,0.18 -0.339,0.629 l -0.591,1.785 -1.038,-0.309 1.237,-3.734 0.983,0.292 -0.216,0.651 q 0.362,-0.302 0.585,-0.387 0.365,-0.144 0.828,-0.006 z m 5.347,1.947 q 0.253,0.097 0.459,0.284 0.206,0.187 0.307,0.497 0.081,0.252 0.019,0.55 -0.043,0.197 -0.193,0.55 l -0.981,2.285 -1.026,-0.392 0.984,-2.311 q 0.088,-0.206 0.074,-0.367 -0.026,-0.304 -0.384,-0.441 -0.415,-0.159 -0.712,0.107 -0.155,0.142 -0.258,0.385 l -0.92,2.161 -1.009,-0.386 0.92,-2.161 q 0.138,-0.323 0.13,-0.496 -0.015,-0.311 -0.384,-0.453 -0.429,-0.164 -0.688,0.043 -0.145,0.119 -0.271,0.415 l -0.93,2.185 -1.016,-0.388 1.543,-3.623 0.973,0.372 -0.225,0.529 q 0.307,-0.212 0.523,-0.269 0.382,-0.102 0.846,0.076 0.439,0.168 0.632,0.455 0.146,0.253 0.145,0.563 0.333,-0.244 0.688,-0.283 0.373,-0.032 0.753,0.113 z m 3.429,3.844 q -0.12,0.012 -0.234,0.004 -0.109,-0.01 -0.287,-0.057 l -0.238,-0.062 q -0.333,-0.09 -0.504,-0.077 -0.29,0.022 -0.426,0.286 -0.121,0.236 -0.04,0.405 0.086,0.168 0.284,0.259 0.313,0.145 0.665,0.092 0.355,-0.051 0.603,-0.508 z m -0.368,-0.702 q 0.286,0.092 0.426,0.097 0.251,0.012 0.342,-0.165 0.111,-0.216 -0.007,-0.371 -0.113,-0.156 -0.42,-0.298 -0.344,-0.159 -0.57,-0.064 -0.164,0.072 -0.302,0.26 l -0.936,-0.433 q 0.268,-0.447 0.663,-0.632 0.624,-0.287 1.561,0.147 0.61,0.282 0.965,0.73 0.355,0.448 0.028,1.084 l -0.831,1.613 q -0.086,0.168 -0.203,0.41 -0.083,0.185 -0.068,0.272 0.014,0.087 0.088,0.173 l -0.07,0.136 -1.056,-0.488 q 0.011,-0.127 0.042,-0.228 0.031,-0.101 0.082,-0.226 -0.307,0.114 -0.644,0.137 -0.401,0.026 -0.796,-0.157 -0.504,-0.233 -0.695,-0.657 -0.186,-0.426 0.072,-0.926 0.334,-0.649 1.012,-0.695 0.371,-0.024 0.968,0.168 z m 0.809,-1.448 z m 3.096,0.066 0.938,0.471 -1.409,2.519 1.916,-0.704 1.182,0.594 -2.016,0.682 0.141,2.785 -1.152,-0.578 -0.047,-1.917 -0.613,0.192 -0.609,1.088 -0.938,-0.471 z m 4.239,4.544 q -0.33,-0.17 -0.625,-0.068 -0.292,0.103 -0.53,0.414 l 1.475,0.759 q 0.181,-0.369 0.079,-0.658 -0.096,-0.291 -0.4,-0.447 z m 0.425,-0.742 q 0.453,0.233 0.724,0.581 0.271,0.348 0.308,0.816 0.038,0.416 -0.13,0.852 -0.099,0.256 -0.361,0.697 l -2.484,-1.278 q -0.277,0.528 -0.073,0.902 0.122,0.23 0.399,0.373 0.293,0.151 0.567,0.087 0.149,-0.034 0.312,-0.146 l 0.969,0.499 q -0.212,0.287 -0.693,0.449 -0.754,0.262 -1.593,-0.17 -0.693,-0.356 -0.98,-1.052 -0.287,-0.695 0.259,-1.648 0.512,-0.893 1.261,-1.125 0.753,-0.23 1.515,0.163 z m 0.067,0.034 z m 4.224,2.154 q 0.027,0.013 0.042,0.025 0.02,0.01 0.082,0.045 l -0.515,0.928 q -0.085,-0.055 -0.154,-0.093 -0.069,-0.038 -0.112,-0.06 -0.577,-0.287 -0.972,-0.03 -0.222,0.145 -0.453,0.562 l -0.918,1.656 -0.963,-0.479 1.921,-3.465 0.912,0.454 -0.335,0.604 q 0.414,-0.236 0.648,-0.282 0.386,-0.079 0.816,0.134 z m -0.196,0.874 0.338,-0.655 0.517,0.24 0.507,-0.98 0.96,0.445 -0.507,0.98 0.602,0.279 -0.338,0.655 -0.602,-0.279 -0.96,1.858 q -0.112,0.216 -0.082,0.298 0.031,0.078 0.327,0.216 0.044,0.021 0.092,0.043 0.053,0.02 0.102,0.039 l -0.355,0.687 -0.468,-0.197 q -0.699,-0.296 -0.823,-0.662 -0.082,-0.234 0.088,-0.563 l 1.118,-2.164 z"
       id="path80" />
    <path
       d="m 82.312,155.032 q -0.119,0.019 -0.233,0.018 -0.109,-0.004 -0.29,-0.04 l -0.242,-0.048 q -0.338,-0.07 -0.508,-0.047 -0.288,0.039 -0.406,0.311 -0.106,0.242 -0.013,0.407 0.097,0.162 0.3,0.242 0.322,0.126 0.67,0.053 0.351,-0.072 0.569,-0.543 z m -0.413,-0.679 q 0.291,0.075 0.432,0.072 0.251,-0.003 0.331,-0.185 0.097,-0.222 -0.031,-0.37 -0.123,-0.149 -0.439,-0.273 -0.354,-0.139 -0.573,-0.03 -0.159,0.082 -0.285,0.277 l -0.963,-0.377 q 0.239,-0.462 0.62,-0.67 0.604,-0.323 1.567,0.054 0.627,0.246 1.011,0.672 0.384,0.426 0.099,1.08 l -0.724,1.659 q -0.075,0.173 -0.175,0.421 -0.071,0.19 -0.05,0.276 0.02,0.086 0.099,0.167 l -0.061,0.139 -1.086,-0.425 q 0.002,-0.127 0.027,-0.23 0.024,-0.103 0.068,-0.23 -0.299,0.131 -0.634,0.175 -0.399,0.05 -0.805,-0.109 -0.518,-0.203 -0.736,-0.615 -0.213,-0.414 0.011,-0.928 0.291,-0.667 0.964,-0.753 0.369,-0.046 0.977,0.111 z m 0.713,-1.493 z m 7.343,0.533 1.666,0.199 -0.697,5.252 -1.079,-0.129 0.472,-3.552 q 0.02,-0.153 0.06,-0.427 0.041,-0.277 0.061,-0.427 l -1.634,4.282 -1.124,-0.134 -0.456,-4.531 q -0.02,0.15 -0.053,0.428 -0.033,0.275 -0.053,0.428 l -0.472,3.552 -1.079,-0.129 0.697,-5.252 1.684,0.201 0.459,4.249 z m 3.959,3.132 q -0.092,0.074 -0.191,0.127 -0.096,0.049 -0.271,0.105 l -0.234,0.075 q -0.329,0.102 -0.463,0.204 -0.227,0.172 -0.183,0.464 0.039,0.26 0.207,0.357 0.171,0.093 0.388,0.064 0.345,-0.046 0.605,-0.277 0.264,-0.231 0.199,-0.741 z m -0.72,-0.385 q 0.291,-0.075 0.411,-0.146 0.215,-0.123 0.186,-0.319 -0.036,-0.238 -0.225,-0.303 -0.186,-0.069 -0.524,-0.024 -0.379,0.051 -0.51,0.25 -0.093,0.147 -0.097,0.376 l -1.032,0.139 q -0.042,-0.513 0.175,-0.876 0.347,-0.569 1.379,-0.708 0.672,-0.09 1.231,0.092 0.559,0.182 0.664,0.883 l 0.266,1.778 q 0.028,0.185 0.075,0.447 0.041,0.198 0.104,0.262 0.063,0.064 0.175,0.096 l 0.022,0.149 -1.163,0.157 q -0.066,-0.111 -0.101,-0.211 -0.034,-0.101 -0.065,-0.231 -0.187,0.257 -0.452,0.456 -0.317,0.235 -0.752,0.293 -0.555,0.075 -0.964,-0.175 -0.405,-0.254 -0.488,-0.805 -0.107,-0.715 0.427,-1.113 0.293,-0.217 0.901,-0.375 z m -0.187,-1.629 z m 4.042,-0.98 q 0.029,-0.009 0.048,-0.011 0.022,-0.007 0.091,-0.024 l 0.334,1 q -0.101,0.019 -0.178,0.038 -0.077,0.019 -0.124,0.033 -0.621,0.187 -0.706,0.634 -0.047,0.251 0.103,0.7 l 0.597,1.783 -1.037,0.311 -1.248,-3.731 0.983,-0.295 0.218,0.65 q 0.114,-0.445 0.245,-0.635 0.212,-0.316 0.675,-0.455 z m 3.252,2.1 q 0.345,-0.15 0.464,-0.498 0.118,-0.351 -0.143,-0.89 -0.245,-0.506 -0.6,-0.672 -0.352,-0.167 -0.731,-0.003 -0.517,0.224 -0.491,0.77 0.015,0.29 0.189,0.649 0.15,0.31 0.377,0.504 0.418,0.364 0.934,0.139 z m -1.637,-2.773 q 0.283,-0.123 0.532,-0.132 0.426,-0.015 0.828,0.265 l -0.248,-0.513 0.954,-0.414 1.632,3.376 q 0.333,0.689 0.257,1.144 -0.13,0.783 -1.322,1.301 -0.72,0.313 -1.304,0.242 -0.584,-0.07 -0.89,-0.581 l 1.068,-0.464 q 0.12,0.145 0.248,0.177 0.22,0.058 0.596,-0.105 0.531,-0.23 0.547,-0.644 0.013,-0.266 -0.233,-0.776 l -0.11,-0.229 q -0.031,0.29 -0.137,0.474 -0.19,0.339 -0.659,0.543 -0.723,0.314 -1.39,0.023 -0.664,-0.296 -1.062,-1.119 -0.384,-0.793 -0.227,-1.513 0.155,-0.723 0.92,-1.055 z m 0.309,-0.146 z m 5.376,-0.273 q -0.058,0.1 -0.131,0.184 -0.071,0.078 -0.214,0.19 l -0.19,0.149 q -0.269,0.207 -0.356,0.347 -0.147,0.237 0.004,0.495 0.134,0.229 0.327,0.263 0.195,0.029 0.387,-0.072 0.305,-0.16 0.461,-0.464 0.159,-0.305 -0.094,-0.76 z m -0.818,-0.116 q 0.243,-0.169 0.329,-0.275 0.154,-0.188 0.053,-0.361 -0.123,-0.21 -0.325,-0.207 -0.2,-0.002 -0.499,0.155 -0.335,0.176 -0.382,0.406 -0.031,0.168 0.051,0.384 l -0.911,0.479 q -0.233,-0.465 -0.167,-0.877 0.11,-0.649 1.021,-1.128 0.593,-0.312 1.184,-0.331 0.591,-0.019 0.953,0.6 l 0.919,1.57 q 0.096,0.163 0.238,0.392 0.113,0.171 0.196,0.209 0.083,0.038 0.2,0.031 l 0.077,0.132 -1.027,0.54 q -0.104,-0.081 -0.174,-0.163 -0.07,-0.082 -0.148,-0.193 -0.078,0.304 -0.25,0.579 -0.208,0.327 -0.592,0.529 -0.491,0.258 -0.966,0.163 -0.474,-0.1 -0.759,-0.587 -0.369,-0.631 -0.021,-1.184 0.192,-0.302 0.7,-0.655 z m -0.788,-1.458 z m 5.039,-3.157 0.734,1.24 1.154,-0.613 q 0.344,-0.183 0.471,-0.349 0.226,-0.293 -0.004,-0.682 -0.248,-0.42 -0.628,-0.408 -0.213,0.007 -0.544,0.182 z m 0.921,-1.543 q 0.518,-0.263 0.857,-0.299 0.343,-0.038 0.66,0.073 0.262,0.091 0.481,0.255 0.219,0.164 0.38,0.436 0.195,0.329 0.208,0.741 0.012,0.409 -0.313,0.755 0.413,-0.051 0.693,0.114 0.281,0.159 0.568,0.645 l 0.183,0.31 q 0.187,0.316 0.28,0.415 0.145,0.157 0.341,0.165 l 0.069,0.116 -1.121,0.595 q -0.137,-0.129 -0.213,-0.212 -0.155,-0.173 -0.278,-0.375 l -0.261,-0.426 q -0.268,-0.438 -0.52,-0.498 -0.249,-0.061 -0.699,0.178 l -1.051,0.558 1.071,1.81 -0.995,0.529 -2.732,-4.617 z m 6.286,0.69 q -0.063,0.098 -0.139,0.178 -0.075,0.075 -0.222,0.181 l -0.197,0.141 q -0.278,0.196 -0.372,0.332 -0.158,0.231 -0.019,0.495 0.123,0.235 0.315,0.277 0.193,0.037 0.39,-0.056 0.312,-0.147 0.482,-0.444 0.173,-0.299 -0.059,-0.763 z m -0.812,-0.15 q 0.251,-0.159 0.341,-0.261 0.163,-0.181 0.07,-0.358 -0.113,-0.215 -0.315,-0.22 -0.2,-0.01 -0.505,0.134 -0.343,0.162 -0.4,0.39 -0.039,0.167 0.034,0.385 l -0.933,0.441 q -0.211,-0.474 -0.126,-0.883 0.14,-0.644 1.072,-1.085 0.607,-0.287 1.198,-0.281 0.591,0.006 0.925,0.638 l 0.846,1.607 q 0.088,0.167 0.22,0.402 0.105,0.175 0.186,0.217 0.081,0.042 0.198,0.039 l 0.071,0.135 -1.051,0.497 q -0.1,-0.085 -0.166,-0.17 -0.066,-0.085 -0.139,-0.199 -0.092,0.3 -0.277,0.568 -0.222,0.318 -0.616,0.504 -0.502,0.237 -0.973,0.123 -0.469,-0.119 -0.731,-0.617 -0.34,-0.646 0.034,-1.184 0.205,-0.294 0.729,-0.626 z m -0.72,-1.489 z m 2.091,-2.356 0.978,-0.391 1.169,2.627 0.636,-1.852 1.233,-0.492 -0.717,1.911 2.366,1.658 -1.201,0.48 -1.597,-1.178 -0.231,0.572 0.505,1.135 -0.978,0.391 z m 6.541,1.859 q 0.124,0.248 0.271,0.323 0.259,0.133 0.773,-0.03 0.302,-0.096 0.448,-0.237 0.149,-0.142 0.089,-0.313 -0.058,-0.163 -0.232,-0.203 -0.174,-0.039 -1.171,0.047 -0.72,0.055 -1.076,-0.093 -0.355,-0.144 -0.51,-0.58 -0.182,-0.514 0.111,-1.017 0.296,-0.507 1.068,-0.753 0.733,-0.234 1.292,-0.101 0.561,0.128 0.871,0.787 l -1.024,0.326 q -0.088,-0.18 -0.216,-0.261 -0.239,-0.144 -0.645,-0.014 -0.334,0.106 -0.443,0.251 -0.105,0.143 -0.058,0.276 0.059,0.167 0.237,0.194 0.179,0.03 1.162,-0.071 0.659,-0.058 1.062,0.12 0.401,0.183 0.549,0.602 0.196,0.551 -0.114,1.04 -0.308,0.485 -1.213,0.773 -0.923,0.294 -1.495,0.067 -0.57,-0.231 -0.773,-0.803 z m -0.149,-2.874 z m 4.231,3.732 0.134,-0.025 q 0.156,-0.03 0.291,-0.08 0.135,-0.051 0.214,-0.136 0.076,-0.081 0.103,-0.288 0.031,-0.207 0.005,-0.246 l -2.521,-3.613 1.165,-0.277 1.617,2.592 0.084,-2.997 1.114,-0.265 -0.385,4.061 q -0.111,1.174 -0.274,1.487 -0.162,0.316 -0.857,0.482 -0.14,0.033 -0.225,0.05 -0.084,0.02 -0.256,0.05 z m 0.192,-4.963 z m 5.558,1.075 q -0.09,0.076 -0.188,0.132 -0.095,0.052 -0.268,0.113 l -0.231,0.081 q -0.326,0.111 -0.457,0.216 -0.222,0.178 -0.169,0.468 0.047,0.258 0.217,0.351 0.174,0.089 0.39,0.053 0.344,-0.056 0.597,-0.293 0.257,-0.238 0.177,-0.746 z m -0.731,-0.366 q 0.289,-0.083 0.406,-0.157 0.211,-0.129 0.176,-0.324 -0.043,-0.237 -0.234,-0.297 -0.188,-0.064 -0.525,-0.01 -0.377,0.061 -0.502,0.263 -0.089,0.149 -0.086,0.378 l -1.027,0.166 q -0.058,-0.512 0.149,-0.88 0.33,-0.578 1.358,-0.744 0.669,-0.108 1.233,0.059 0.565,0.167 0.69,0.865 l 0.319,1.77 q 0.033,0.184 0.088,0.445 0.047,0.196 0.112,0.259 0.065,0.062 0.178,0.091 l 0.027,0.149 -1.158,0.187 q -0.07,-0.109 -0.107,-0.209 -0.037,-0.1 -0.072,-0.229 -0.18,0.262 -0.439,0.468 -0.31,0.243 -0.743,0.313 -0.553,0.089 -0.969,-0.149 -0.413,-0.243 -0.512,-0.792 -0.128,-0.711 0.393,-1.124 0.286,-0.225 0.889,-0.399 z m -0.235,-1.623 z m 2.774,-1.672 1.056,-0.097 0.289,2.838 1.19,-1.588 1.332,-0.122 -1.285,1.622 1.737,2.251 -1.298,0.119 -1.154,-1.575 -0.4,0.48 0.125,1.226 -1.056,0.097 z m 7.065,2.924 q -0.1,0.064 -0.205,0.106 -0.101,0.039 -0.282,0.076 l -0.241,0.05 q -0.339,0.067 -0.484,0.154 -0.246,0.147 -0.237,0.441 0.008,0.262 0.163,0.376 0.159,0.111 0.379,0.104 0.348,-0.01 0.634,-0.212 0.289,-0.202 0.285,-0.716 z m -0.67,-0.459 q 0.298,-0.044 0.425,-0.102 0.228,-0.1 0.222,-0.297 -0.007,-0.24 -0.188,-0.325 -0.177,-0.089 -0.518,-0.079 -0.383,0.011 -0.536,0.195 -0.11,0.136 -0.14,0.363 l -1.042,0.029 q 0.018,-0.514 0.277,-0.852 0.412,-0.529 1.454,-0.558 0.678,-0.019 1.212,0.221 0.534,0.24 0.556,0.947 l 0.056,1.795 q 0.006,0.187 0.022,0.452 0.018,0.201 0.073,0.271 0.055,0.07 0.163,0.114 l 0.005,0.151 -1.174,0.033 q -0.053,-0.117 -0.075,-0.221 -0.022,-0.104 -0.038,-0.236 -0.216,0.236 -0.503,0.406 -0.343,0.2 -0.782,0.212 -0.561,0.016 -0.937,-0.276 -0.373,-0.295 -0.39,-0.851 -0.022,-0.721 0.555,-1.061 0.317,-0.185 0.939,-0.278 z m 0.006,-1.638 z"
       id="path82" />
  </g>
  <g
     class="C"
     id="g122">
    <g
       class="D"
       id="g94">
      <path
         d="m 42.277,80.357 c 4.802,5.682 9.184,5.095 13.371,4.252 L 54.42,79.554 c -3.706,0.999 -7.808,1.312 -12.142,0.803 z"
         id="path86" />
      <path
         d="m 37.316,75.49 c 3.242,4.526 8.635,6.148 16.914,3.874 l -0.709,-4.866 c -4.675,0.988 -8.988,2.304 -16.206,0.992 z"
         id="path88" />
      <use
         xlink:href="#F"
         id="use90"
         x="0"
         y="0"
         width="100%"
         height="100%" />
      <path
         d="m 52.199,69.064 h 24.71 V 95.853 C 47.8,96.815 50.986,76.22 52.199,69.064 Z"
         id="path92" />
    </g>
    <g
       class="E"
       id="g104">
      <use
         xlink:href="#G"
         id="use96"
         x="0"
         y="0"
         width="100%"
         height="100%" />
      <path
         d="m 20.638,56.072 c 4.148,4.929 8.49,9.746 25.939,7.04 l -4.772,-6 c -7.573,0.03 -14.962,-0.074 -21.167,-1.039 z"
         id="path98" />
      <path
         d="m 11.562,49.548 c 2.637,4.944 7.344,10.956 29.734,8.018 L 37.42,50.15 c -8.255,1.511 -16.953,1.451 -25.858,-0.601 z"
         id="path100" />
      <use
         xlink:href="#H"
         id="use102"
         x="0"
         y="0"
         width="100%"
         height="100%" />
    </g>
    <g
       class="E"
       id="g118">
      <path
         d="m 44.903,62.578 c 4.428,6.117 10.881,5.804 17.406,5.258 l -6.426,-4.441 c -2.963,1.277 -6.898,0.393 -10.981,-0.817 z"
         id="path106" />
      <path
         d="m 39.558,57.967 c 3.302,4.157 8.023,6.993 16.838,6.014 L 52.32,58.769 C 48.148,59.57 43.853,58.764 39.558,57.967 Z"
         id="path108" />
      <path
         d="m 35.549,52.221 c 2.135,3.932 5.488,9.163 17.306,7.283 l -1.67,-6.548 c -4.867,0.198 -9.569,0.609 -15.635,-0.735 z"
         id="path110" />
      <use
         xlink:href="#I"
         id="use112"
         x="0"
         y="0"
         width="100%"
         height="100%" />
      <path
         d="m 23.722,41.464 c 6.861,12.482 22.054,6.415 27.061,5.145 l -2.339,-5.345 c -9.616,1.038 -18.13,1.297 -24.722,0.2 z"
         id="path114" />
      <use
         xlink:href="#J"
         id="use116"
         x="0"
         y="0"
         width="100%"
         height="100%" />
    </g>
    <use
       xlink:href="#K"
       class="B D I M"
       id="use120"
       x="0"
       y="0"
       width="100%"
       height="100%" />
  </g>
  <use
     xlink:href="#L"
     class="B H I"
     id="use124" />
  <g
     transform="matrix(-1,0,0,1,395.07559,-49.531134)"
     id="g166">
    <g
       class="C"
       id="g162">
      <g
         class="D"
         id="g134">
        <path
           d="m 255.89,130.166 c 4.802,5.682 9.184,5.095 13.371,4.252 l -1.228,-5.055 c -3.706,0.999 -7.808,1.312 -12.142,0.803 z"
           id="path126" />
        <path
           d="m 250.929,125.299 c 3.242,4.526 8.635,6.148 16.914,3.874 l -0.709,-4.866 c -4.675,0.988 -8.988,2.304 -16.206,0.992 z"
           id="path128" />
        <use
           xlink:href="#F"
           x="213.61301"
           y="49.808998"
           id="use130"
           width="100%"
           height="100%" />
        <path
           d="m 265.812,118.873 h 24.71 v 26.789 c -29.109,0.962 -25.923,-19.633 -24.71,-26.789 z"
           id="path132" />
      </g>
      <g
         class="E"
         id="g144">
        <use
           xlink:href="#G"
           x="213.61301"
           y="49.808998"
           id="use136"
           width="100%"
           height="100%" />
        <path
           d="m 234.251,105.881 c 4.148,4.929 8.49,9.746 25.939,7.04 l -4.772,-6 c -7.573,0.03 -14.962,-0.074 -21.167,-1.039 z"
           id="path138" />
        <path
           d="m 225.175,99.357 c 2.637,4.944 7.344,10.956 29.734,8.018 l -3.875,-7.417 c -8.255,1.511 -16.953,1.451 -25.858,-0.601 z"
           id="path140" />
        <use
           xlink:href="#H"
           x="213.61301"
           y="49.808998"
           id="use142"
           width="100%"
           height="100%" />
      </g>
      <g
         class="E"
         id="g158">
        <path
           d="m 258.516,112.387 c 4.428,6.117 10.881,5.804 17.406,5.258 l -6.426,-4.441 c -2.963,1.277 -6.898,0.393 -10.981,-0.817 z"
           id="path146" />
        <path
           d="m 253.171,107.776 c 3.302,4.157 8.023,6.993 16.838,6.014 l -4.076,-5.212 c -4.172,0.801 -8.467,-0.005 -12.762,-0.802 z"
           id="path148" />
        <path
           d="m 249.162,102.03 c 2.135,3.932 5.488,9.163 17.306,7.283 l -1.67,-6.548 c -4.867,0.198 -9.569,0.609 -15.635,-0.735 z"
           id="path150" />
        <use
           xlink:href="#I"
           x="213.61301"
           y="49.808998"
           id="use152"
           width="100%"
           height="100%" />
        <path
           d="m 237.335,91.273 c 6.861,12.482 22.054,6.415 27.061,5.145 l -2.339,-5.345 c -9.616,1.038 -18.13,1.297 -24.722,0.2 z"
           id="path154" />
        <use
           xlink:href="#J"
           x="213.61301"
           y="49.808998"
           id="use156"
           width="100%"
           height="100%" />
      </g>
      <use
         xlink:href="#K"
         x="213.61301"
         y="49.808998"
         class="B D I M"
         id="use160"
         width="100%"
         height="100%" />
    </g>
    <use
       xlink:href="#L"
       x="213.61301"
       y="49.808998"
       class="B H I"
       id="use164"
       width="100%"
       height="100%" />
  </g>
  <g
     stroke-width="0.794"
     class="B C D"
     id="g172">
    <circle
       cx="90.670998"
       cy="76.408997"
       r="28.652"
       class="I"
       id="circle168" />
    <circle
       cx="90.670998"
       cy="76.408997"
       r="19.391001"
       class="I"
       id="circle170" />
  </g>
  <path
     d="M90.671 62.689A13.73 13.73 0 0 0 76.952 76.41c0 7.572 6.146 13.719 13.719 13.719s13.719-6.147 13.719-13.719a13.73 13.73 0 0 0-13.719-13.721zm-.312 2.235l-.32 6.626-2.009-6.328c-.239-.753.19-1.523.973-1.623s1.395.536 1.357 1.325zm2.319-1.278c.78.122 1.188.904.929 1.65l-2.175 6.269-.145-6.631c-.017-.79.611-1.409 1.391-1.287zm-5.545 1.824l1.56 6.451-3.708-5.501c-.441-.655-.248-1.516.474-1.835s1.491.118 1.676.885zm9.059-.744c.717.339.888 1.204.429 1.847l-3.856 5.406 1.73-6.41c.206-.762.983-1.18 1.697-.843zm-11.996 2.184l3.314 5.751-5.107-4.233c-.608-.504-.665-1.384-.062-1.894s1.463-.308 1.857.377zm15.063-.155c.593.526.514 1.404-.107 1.892l-5.22 4.099 3.463-5.66c.412-.674 1.275-.855 1.865-.331zm-17.475 2.364l4.798 4.582-6.094-2.622c-.725-.312-1.027-1.141-.592-1.799s1.316-.706 1.887-.161zm19.849.446c.42.67.096 1.49-.637 1.783l-6.167 2.464 4.919-4.454c.585-.53 1.465-.461 1.885.207zm-21.543 2.352l5.899 3.047-6.588-.799c-.784-.095-1.308-.805-1.077-1.56s1.064-1.051 1.765-.688zm23.026 1.011c.212.764-.331 1.46-1.117 1.535l-6.61.626 5.978-2.891c.711-.344 1.535-.03 1.748.731zm-23.858 2.154l6.512 1.261-6.545 1.088c-.779.129-1.473-.328-1.473-1.023.092-1.521.73-1.475 1.506-1.325zm24.334 1.325c-.092 1.52-.73 1.474-1.505 1.324l-6.509-1.26 6.542-1.089c.779-.13 1.473.328 1.473 1.025zM85.95 77.726l-5.976 2.891c-.711.344-1.535.03-1.747-.73s.331-1.458 1.117-1.533zm9.406.126l6.587.801c.784.095 1.308.805 1.077 1.56s-1.064 1.048-1.765.686zm-8.843 1.153l-4.919 4.453c-.585.53-1.465.461-1.885-.208s-.096-1.489.637-1.782zm8.248.109l6.094 2.624c.725.312 1.027 1.141.592 1.799s-1.316.705-1.887.159zm-7.349.956l-3.463 5.66c-.412.674-1.275.855-1.865.331s-.514-1.404.107-1.892zm6.42.086l5.11 4.233c.608.504.665 1.384.063 1.894s-1.463.309-1.857-.375zm-5.255.684l-1.728 6.408c-.206.762-.983 1.18-1.697.844s-.889-1.204-.43-1.847zm4.074.055l3.709 5.503c.441.655.248 1.516-.474 1.836s-1.491-.117-1.676-.885zm-2.74.358l.145 6.631c.017.79-.611 1.409-1.391 1.287s-1.188-.903-.929-1.65zm1.395.016l2.009 6.328c.239.753-.19 1.523-.973 1.623s-1.395-.536-1.356-1.325z"
     opacity=".986"
     class="B H"
     id="path174" />
  <circle
     cx="90.671"
     cy="76.409"
     r="5.295"
     stroke-width="1.123"
     class="B C D I"
     id="circle176" />
  <g
     class="G B"
     id="g206">
    <use
       xlink:href="#M"
       id="use178"
       x="0"
       y="0"
       width="100%"
       height="100%" />
    <use
       xlink:href="#N"
       id="use180"
       x="0"
       y="0"
       width="100%"
       height="100%" />
    <use
       xlink:href="#O"
       id="use182"
       x="0"
       y="0"
       width="100%"
       height="100%" />
    <use
       xlink:href="#P"
       id="use184"
       x="0"
       y="0"
       width="100%"
       height="100%" />
    <use
       xlink:href="#Q"
       id="use186"
       x="0"
       y="0"
       width="100%"
       height="100%" />
    <use
       xlink:href="#R"
       id="use188"
       x="0"
       y="0"
       width="100%"
       height="100%" />
    <use
       xlink:href="#S"
       id="use190"
       x="0"
       y="0"
       width="100%"
       height="100%" />
    <use
       xlink:href="#T"
       id="use192"
       x="0"
       y="0"
       width="100%"
       height="100%" />
    <use
       xlink:href="#U"
       id="use194"
       x="0"
       y="0"
       width="100%"
       height="100%" />
    <use
       xlink:href="#V"
       id="use196"
       x="0"
       y="0"
       width="100%"
       height="100%" />
    <use
       xlink:href="#W"
       id="use198"
       x="0"
       y="0"
       width="100%"
       height="100%" />
    <use
       xlink:href="#X"
       id="use200"
       x="0"
       y="0"
       width="100%"
       height="100%" />
    <use
       xlink:href="#Y"
       id="use202"
       x="0"
       y="0"
       width="100%"
       height="100%" />
    <use
       xlink:href="#Z"
       id="use204"
       x="0"
       y="0"
       width="100%"
       height="100%" />
  </g>
  <g
     transform="matrix(-1,0,0,1,195.68962,-50.186976)"
     class="B G"
     id="g236">
    <use
       xlink:href="#M"
       x="14.226"
       y="50.187"
       id="use208"
       width="100%"
       height="100%" />
    <use
       xlink:href="#N"
       x="14.226"
       y="50.187"
       id="use210"
       width="100%"
       height="100%" />
    <use
       xlink:href="#O"
       x="14.226"
       y="50.187"
       id="use212"
       width="100%"
       height="100%" />
    <use
       xlink:href="#P"
       x="14.226"
       y="50.187"
       id="use214"
       width="100%"
       height="100%" />
    <use
       xlink:href="#Q"
       x="14.226"
       y="50.187"
       id="use216"
       width="100%"
       height="100%" />
    <use
       xlink:href="#R"
       x="14.226"
       y="50.187"
       id="use218"
       width="100%"
       height="100%" />
    <use
       xlink:href="#S"
       x="14.226"
       y="50.187"
       id="use220"
       width="100%"
       height="100%" />
    <use
       xlink:href="#T"
       x="14.226"
       y="50.187"
       id="use222"
       width="100%"
       height="100%" />
    <use
       xlink:href="#U"
       x="14.226"
       y="50.187"
       id="use224"
       width="100%"
       height="100%" />
    <use
       xlink:href="#V"
       x="14.226"
       y="50.187"
       id="use226"
       width="100%"
       height="100%" />
    <use
       xlink:href="#W"
       x="14.226"
       y="50.187"
       id="use228"
       width="100%"
       height="100%" />
    <use
       xlink:href="#X"
       x="14.226"
       y="50.187"
       id="use230"
       width="100%"
       height="100%" />
    <use
       xlink:href="#Y"
       x="14.226"
       y="50.187"
       id="use232"
       width="100%"
       height="100%" />
    <use
       xlink:href="#Z"
       x="14.226"
       y="50.187"
       id="use234"
       width="100%"
       height="100%" />
  </g>
  <path
     d="M75.038 57.268q-.236-.267-.479-.255-.24.01-.493.234l-.666.59.892 1.007.666-.59q.253-.224.283-.47.033-.248-.204-.515zm.704-.632q.537.606.452 1.128-.084.522-.653 1.026l-.727.643 1.089 1.23-.71.629-3.03-3.422 1.49-1.32q.515-.456 1.056-.463.541-.007 1.032.548zm6.649-.907q.526-.213.677-.725.154-.514-.135-1.229-.288-.713-.755-.976-.466-.267-.992-.054-.526.213-.683.727-.157.515.133 1.231.289.716.759.977.47.262.996.049zm1.427-2.312q.461 1.141.065 2.007-.28.688-1.189 1.055-.908.367-1.588.066-.889-.346-1.35-1.488-.47-1.164-.062-2.008.28-.688 1.189-1.055.908-.367 1.588-.066.877.325 1.347 1.489zm-2.935-1.423zm6.998-1.65l.954-.051.199 3.743 2.26-.12.044.82-3.214.171zm7.71 5l-.929-.192.924-4.476.929.192zm.477-4.66zm4.274 4.777q-.103.299-.06.495.079.357.582.613.301.153.523.183.421.054.597-.291.103-.202-.018-.402-.122-.198-.458-.473l-.382-.316q-.562-.467-.72-.76-.268-.491.037-1.091.279-.547.861-.707.582-.159 1.353.233.644.328.923.901.283.572-.026 1.233l-.818-.416q.165-.379-.055-.685-.147-.204-.443-.354-.329-.167-.593-.135-.264.033-.385.27-.111.218.027.425.088.135.445.439l.616.526q.405.345.546.65.218.473-.059 1.017-.284.558-.901.71-.613.151-1.392-.246-.796-.405-1.067-.999-.27-.597.053-1.232zm2.323-2.519zm2.953 7.785l-.703-.637 3.07-3.385.703.637zm2.779-3.771z"
     class="H"
     id="path238" />
  <g
     class="G"
     id="g244">
    <path
       d="m 75.727,91.575 0.723,0.624 -2.45,2.837 1.713,1.479 -0.537,0.622 -2.436,-2.103 z m 1.952,5.138 0.989,0.605 0.451,-1.832 z m 1.533,-2.395 0.921,0.563 -1.002,4.744 -0.884,-0.54 0.239,-0.955 -1.437,-0.878 -0.76,0.637 -0.852,-0.521 z m 0.455,0.278 z m 1.727,1 0.886,0.358 -1.404,3.476 2.099,0.847 -0.308,0.762 -2.984,-1.205 z m 2.906,1.184 0.947,0.212 -0.612,2.742 q -0.103,0.46 -0.041,0.696 0.086,0.413 0.655,0.54 0.566,0.126 0.819,-0.211 0.156,-0.187 0.259,-0.647 l 0.612,-2.742 0.947,0.212 -0.612,2.742 q -0.159,0.711 -0.468,1.058 -0.574,0.634 -1.733,0.375 -1.159,-0.259 -1.411,-1.078 -0.132,-0.446 0.026,-1.157 z m 1.794,0.401 z m 3.42,0.522 0.955,-0.011 0.042,3.748 2.263,-0.025 0.009,0.822 -3.218,0.036 z m 4.793,4.313 -0.942,0.113 -0.545,-4.538 0.942,-0.113 z m -1.027,-4.57 z m 0.809,0.056 0.972,-0.24 2.532,2.661 -0.765,-3.097 0.864,-0.213 1.096,4.437 -0.927,0.229 -2.59,-2.704 0.778,3.152 -0.864,0.213 z m 1.834,-0.462 z"
       id="path240" />
    <path
       d="m 100.916,95.221 0.313,0.746 -1.261,0.529 1.455,3.468 -0.886,0.372 -1.455,-3.468 -1.267,0.531 -0.313,-0.746 z m 2.001,2.024 0.987,-0.609 -1.43,-1.231 z m -1.443,-2.451 0.918,-0.567 3.777,3.04 -0.881,0.544 -0.744,-0.645 -1.433,0.884 0.224,0.966 -0.85,0.524 z m 0.454,-0.28 z m 4.269,0.848 q 0.24,0.206 0.438,0.238 0.361,0.058 0.784,-0.316 0.253,-0.224 0.362,-0.419 0.205,-0.372 -0.051,-0.662 -0.15,-0.17 -0.381,-0.131 -0.229,0.041 -0.609,0.252 l -0.434,0.239 q -0.641,0.351 -0.971,0.39 -0.556,0.069 -1.001,-0.436 -0.406,-0.46 -0.34,-1.06 0.066,-0.6 0.714,-1.173 0.542,-0.478 1.177,-0.526 0.636,-0.053 1.137,0.477 l -0.688,0.607 q -0.292,-0.293 -0.657,-0.201 -0.243,0.062 -0.492,0.281 -0.277,0.244 -0.343,0.501 -0.067,0.257 0.11,0.457 0.162,0.184 0.405,0.131 0.158,-0.032 0.571,-0.252 l 0.716,-0.379 q 0.47,-0.25 0.805,-0.268 0.52,-0.029 0.924,0.429 0.415,0.47 0.329,1.099 -0.085,0.625 -0.741,1.204 -0.669,0.591 -1.322,0.625 -0.654,0.032 -1.126,-0.503 z m -1.488,-3.087 z"
       id="path242" />
  </g>
  <defs
     id="defs271">
    <path
       id="B"
       d="M73.366 23.742l1.808 5.561 5.848.001-4.73 3.438 1.806 5.562-4.732-3.436-4.732 3.436 1.806-5.562-4.73-3.438 5.848-.001z" />
    <path
       id="C"
       d="M73.366 27.317l1.005 3.091 3.251.001-2.629 1.911 1.004 3.092-2.63-1.91-2.63 1.91 1.004-3.092-2.629-1.911 3.251-.001z" />
    <path
       id="D"
       d="M325.601 162.081l3.206 7.006c.614-.04 2.841-1.395 2.15-3.591.484-.074.608-2.908-1.901-2.903-.639-1.138-2.823-1.129-3.455-.511z" />
    <path
       id="E"
       d="M325.601 162.081c-1.801.839-2.059 7.88 3.206 7.006 1.915-.697.547-2.413-.167-2.433.876-1.373-.446-2.446-1.13-2.7.554-1.269-.25-2.099-1.91-1.873z" />
    <path
       id="F"
       d="M31.835 69.065c3.843 7.098 11.166 8.745 21.686 5.386l-.472-4.347c-16.864 1.19-16.096-.387-21.214-1.039z" />
    <path
       id="G"
       d="M28.533 62.043c4.314 7.747 16.353 6.792 24.054 5.412l-5.479-5.679c-5.094 1.071-10.178 2.151-18.575.267z" />
    <path
       id="H"
       d="M1.205 42.466c10.333 12.644 23.504 9.656 35.547 8.619l-4.544-8.018c-15.924 2.721-23.056.581-31.003-.601z" />
    <path
       id="I"
       d="M30.404 47.21c5.951 10.539 13.896 6.36 21.315 7.283-.224-2.892-.371-5.806-1.804-8.352-8.109 1.976-14.249 2.296-19.511 1.069z" />
    <path
       id="J"
       d="M38.89 40.328c4.607 2.444 11.862-1.168 11.626 14.032 2.1 9.4 12.406 14.321 13.698 13.564l2.005-4.544c-4.854-.325-10.408-4.408-10.691-10.424 1.731-17.399-11.442-12.74-16.638-12.628z" />
    <path
       id="K"
       d="M65.452 90.008c-2.176-4.203-3.312-8.867-3.312-13.6 0-4.047.831-8.051 2.441-11.765-1.567 2.379-6.181 2.669-12.507 2.888l.125 1.533c5.987 6.685 5.268 18.6 13.253 20.944z" />
    <path
       id="L"
       d="M61.768 68.092l-1.375.323c-1.8.334-3.958.465-6.288.565 2.758 3.563 4.006 7.95 5.412 11.634.766 2.007 1.574 3.801 2.576 5.154-.953-3.021-1.496-6.168-1.496-9.36 0-2.82.42-5.612 1.171-8.317z" />
    <path
       id="M"
       d="M66.982 70.345a1.1 1.1 0 0 0 .408.242c.938.302 2.155-.738 2.709-2.316s.244-3.11-.694-3.412a1.09 1.09 0 0 0-.465-.043c-.096.355-.111.657-.039.842.081-.028.157-.031.226-.009.421.135.435 1.178.033 2.32s-1.073 1.963-1.494 1.828c-.087-.029-.158-.097-.21-.197-.165.181-.327.435-.476.745" />
    <path
       id="N"
       d="M66.696 67.174c-.235.663-.314 1.319-.259 1.878.301-.331.629-.58.968-.72a5.67 5.67 0 0 1 .23-.856c.105-.295.227-.573.359-.814-.209-.281-.322-.667-.336-1.114-.389.412-.731.974-.962 1.626" />
    <path
       id="O"
       d="M68.518 73.404c.283-.442.508-.996.627-1.61s.118-1.211.018-1.719c-.286.276-.588.494-.892.637a5.4 5.4 0 0 1-.101.907c-.061.319-.146.619-.247.883.231.24.431.543.595.901" />
    <path
       id="P"
       d="M65.612 71.165c-.316 1.639.218 3.113 1.191 3.288.248.041.502-.005.746-.121-.066-.319-.157-.591-.264-.803-.111.084-.22.122-.324.102-.435-.077-.603-1.106-.374-2.291s.772-2.089 1.209-2.015c.108.022.199.099.272.224a3.39 3.39 0 0 0 .549-.661c-.186-.203-.41-.337-.662-.381-.973-.173-2.024 1.021-2.342 2.656" />
    <path
       id="Q"
       d="M66.333 78.236c.145.071.298.115.458.121.989.04 1.853-1.286 1.926-2.95s-.674-3.049-1.663-3.091a1.15 1.15 0 0 0-.479.09c.022.343.079.636.169.86.087-.081.18-.119.274-.118.442.02.761 1.015.708 2.221s-.457 2.17-.899 2.155c-.09-.004-.177-.05-.254-.128-.106.215-.189.503-.241.84" />
    <path
       id="R"
       d="M65.129 75.266c-.031.707.086 1.365.308 1.891.189-.398.432-.721.715-.944a5.61 5.61 0 0 1-.033-.91 5.51 5.51 0 0 1 .118-.929c-.262-.24-.474-.58-.625-.99-.273.51-.451 1.162-.482 1.882" />
    <path
       id="S"
       d="M68.701 80.742a4.6 4.6 0 0 0 .128-1.696c-.064-.614-.236-1.176-.475-1.636-.195.341-.423.63-.673.854a5.66 5.66 0 0 1 .161.877c.033.313.039.616.023.89a3.41 3.41 0 0 1 .836.711" />
    <path
       id="T"
       d="M65.253 79.389c.173 1.656 1.117 2.928 2.103 2.835.251-.023.48-.134.68-.313-.156-.286-.32-.524-.486-.701-.081.109-.175.174-.28.185-.441.042-.905-.901-1.029-2.1s.132-2.212.573-2.253c.101-.011.203.032.301.117.126-.203.24-.469.334-.775-.231-.134-.474-.196-.722-.174-.982.095-1.646 1.525-1.472 3.181" />
    <path
       id="U"
       d="M71.013 87.757c-.009-.513-.13-1.09-.373-1.665s-.574-1.075-.942-1.453c-.088.379-.223.716-.398.993.151.238.296.515.421.814a5.65 5.65 0 0 1 .284.856c.328.081.67.236 1.008.454" />
    <path
       id="V"
       d="M67.309 87.378c.65 1.543 1.928 2.514 2.845 2.158.242-.09.435-.268.577-.505-.235-.235-.466-.423-.677-.546-.046.14-.12.238-.224.278-.412.158-1.131-.623-1.602-1.74s-.518-2.159-.108-2.32c.095-.035.207-.023.328.034.063-.228.096-.51.098-.831a1.22 1.22 0 0 0-.75.025c-.918.354-1.136 1.903-.486 3.446" />
    <path
       id="W"
       d="M68.013 85.983c.159.029.316.031.47-.006.96-.229 1.405-1.731.99-3.346s-1.539-2.75-2.499-2.524c-.154.036-.295.107-.42.202.12.318.259.584.407.777.06-.091.134-.15.221-.17.431-.102 1.027.771 1.328 1.941s.195 2.208-.234 2.31c-.085.018-.176.002-.27-.048-.042.235-.038.529.007.864" />
    <path
       id="X"
       d="M65.985 83.454c.176.681.476 1.274.837 1.719.069-.43.208-.804.417-1.094a5.56 5.56 0 0 1-.292-.854c-.078-.302-.129-.595-.154-.867-.326-.165-.633-.439-.903-.794-.103.553-.081 1.209.095 1.889" />
    <path
       id="Y"
       d="M69.197 91.086c.871 1.439 2.28 2.228 3.136 1.753s.844-2.038-.027-3.476c-.871-1.444-2.28-2.23-3.136-1.756a1.08 1.08 0 0 0-.348.31c.209.276.421.495.62.634.031-.101.085-.18.163-.222.384-.212 1.211.466 1.841 1.509s.832 2.065.449 2.279-1.211-.464-1.842-1.508c-.173-.287-.314-.572-.42-.838-.357-.071-.726-.25-1.084-.518.056.569.271 1.211.646 1.834" />
    <path
       id="Z"
       d="M68.358 63.367c-.782 1.488-.699 3.048.183 3.474.227.109.485.134.757.082.037-.351.011-.639-.076-.82-.11.032-.208.032-.289-.008-.397-.191-.256-1.225.309-2.3s1.352-1.799 1.748-1.608.257 1.225-.31 2.302a5.68 5.68 0 0 1-.492.778c.162.279.265.629.305 1.027.401-.348.778-.82 1.072-1.379.783-1.486.7-3.048-.184-3.473s-2.241.441-3.023 1.926" />
  </defs>
</svg>
